ISO-10303-21;
HEADER;
FILE_DESCRIPTION(('FreeCAD Model'),'2;1');
FILE_NAME('Open CASCADE Shape Model','2026-06-14T14:34:31',('Author'),(
    ''),'Open CASCADE STEP processor 7.8','FreeCAD','Unknown');
FILE_SCHEMA(('AUTOMOTIVE_DESIGN { 1 0 10303 214 1 1 1 1 }'));
ENDSEC;
DATA;
#1 = APPLICATION_PROTOCOL_DEFINITION('international standard',
  'automotive_design',2000,#2);
#2 = APPLICATION_CONTEXT(
  'core data for automotive mechanical design processes');
#3 = SHAPE_DEFINITION_REPRESENTATION(#4,#10);
#4 = PRODUCT_DEFINITION_SHAPE('','',#5);
#5 = PRODUCT_DEFINITION('design','',#6,#9);
#6 = PRODUCT_DEFINITION_FORMATION('','',#7);
#7 = PRODUCT('Bottom Case','Bottom Case','',(#8));
#8 = PRODUCT_CONTEXT('',#2,'mechanical');
#9 = PRODUCT_DEFINITION_CONTEXT('part definition',#2,'design');
#10 = ADVANCED_BREP_SHAPE_REPRESENTATION('',(#11,#15),#1424);
#11 = AXIS2_PLACEMENT_3D('',#12,#13,#14);
#12 = CARTESIAN_POINT('',(0.,0.,0.));
#13 = DIRECTION('',(0.,0.,1.));
#14 = DIRECTION('',(1.,0.,-0.));
#15 = MANIFOLD_SOLID_BREP('',#16);
#16 = CLOSED_SHELL('',(#17,#127,#165,#207,#336,#366,#398,#422,#447,#471,
    #496,#520,#545,#562,#668,#692,#723,#832,#856,#886,#916,#933,#974,
    #999,#1024,#1048,#1072,#1097,#1122,#1139,#1163,#1193,#1214,#1311,
    #1408));
#17 = ADVANCED_FACE('',(#18,#52),#122,.F.);
#18 = FACE_BOUND('',#19,.F.);
#19 = EDGE_LOOP('',(#20,#30,#38,#46));
#20 = ORIENTED_EDGE('',*,*,#21,.T.);
#21 = EDGE_CURVE('',#22,#24,#26,.T.);
#22 = VERTEX_POINT('',#23);
#23 = CARTESIAN_POINT('',(3.947502515726,131.94683259077,8.));
#24 = VERTEX_POINT('',#25);
#25 = CARTESIAN_POINT('',(3.947502515726,131.94683259077,22.));
#26 = LINE('',#27,#28);
#27 = CARTESIAN_POINT('',(3.947502515726,131.94683259077,0.));
#28 = VECTOR('',#29,1.);
#29 = DIRECTION('',(0.,0.,1.));
#30 = ORIENTED_EDGE('',*,*,#31,.T.);
#31 = EDGE_CURVE('',#24,#32,#34,.T.);
#32 = VERTEX_POINT('',#33);
#33 = CARTESIAN_POINT('',(3.947502515726,30.997415477481,22.));
#34 = LINE('',#35,#36);
#35 = CARTESIAN_POINT('',(3.947502515726,135.94683259077,22.));
#36 = VECTOR('',#37,1.);
#37 = DIRECTION('',(0.,-1.,0.));
#38 = ORIENTED_EDGE('',*,*,#39,.F.);
#39 = EDGE_CURVE('',#40,#32,#42,.T.);
#40 = VERTEX_POINT('',#41);
#41 = CARTESIAN_POINT('',(3.947502515726,30.997415477481,8.));
#42 = LINE('',#43,#44);
#43 = CARTESIAN_POINT('',(3.947502515726,30.997415477481,0.));
#44 = VECTOR('',#45,1.);
#45 = DIRECTION('',(0.,0.,1.));
#46 = ORIENTED_EDGE('',*,*,#47,.F.);
#47 = EDGE_CURVE('',#22,#40,#48,.T.);
#48 = LINE('',#49,#50);
#49 = CARTESIAN_POINT('',(3.947502515726,131.94683259077,8.));
#50 = VECTOR('',#51,1.);
#51 = DIRECTION('',(0.,-1.,0.));
#52 = FACE_BOUND('',#53,.F.);
#53 = EDGE_LOOP('',(#54,#65,#73,#82,#90,#99,#107,#116));
#54 = ORIENTED_EDGE('',*,*,#55,.T.);
#55 = EDGE_CURVE('',#56,#58,#60,.T.);
#56 = VERTEX_POINT('',#57);
#57 = CARTESIAN_POINT('',(3.947502515726,48.441392555406,13.3086158));
#58 = VERTEX_POINT('',#59);
#59 = CARTESIAN_POINT('',(3.947502515726,49.724828,12.025180355405));
#60 = CIRCLE('',#61,1.283435444594);
#61 = AXIS2_PLACEMENT_3D('',#62,#63,#64);
#62 = CARTESIAN_POINT('',(3.947502515726,48.441392555406,12.025180355405
    ));
#63 = DIRECTION('',(-1.,0.,0.));
#64 = DIRECTION('',(0.,-1.,0.));
#65 = ORIENTED_EDGE('',*,*,#66,.T.);
#66 = EDGE_CURVE('',#58,#67,#69,.T.);
#67 = VERTEX_POINT('',#68);
#68 = CARTESIAN_POINT('',(3.947502515726,49.724828,10.6835858));
#69 = LINE('',#70,#71);
#70 = CARTESIAN_POINT('',(3.947502515726,49.724828,12.025180355405));
#71 = VECTOR('',#72,1.);
#72 = DIRECTION('',(0.,0.,-1.));
#73 = ORIENTED_EDGE('',*,*,#74,.T.);
#74 = EDGE_CURVE('',#67,#75,#77,.T.);
#75 = VERTEX_POINT('',#76);
#76 = CARTESIAN_POINT('',(3.947502515726,48.441392555406,9.400150355406)
  );
#77 = CIRCLE('',#78,1.283435444594);
#78 = AXIS2_PLACEMENT_3D('',#79,#80,#81);
#79 = CARTESIAN_POINT('',(3.947502515726,48.441392555406,10.6835858));
#80 = DIRECTION('',(-1.,0.,0.));
#81 = DIRECTION('',(0.,-1.,0.));
#82 = ORIENTED_EDGE('',*,*,#83,.T.);
#83 = EDGE_CURVE('',#75,#84,#86,.T.);
#84 = VERTEX_POINT('',#85);
#85 = CARTESIAN_POINT('',(3.947502515726,41.13577258058,9.400150355406)
  );
#86 = LINE('',#87,#88);
#87 = CARTESIAN_POINT('',(3.947502515726,48.441392555406,9.400150355406)
  );
#88 = VECTOR('',#89,1.);
#89 = DIRECTION('',(0.,-1.,0.));
#90 = ORIENTED_EDGE('',*,*,#91,.T.);
#91 = EDGE_CURVE('',#84,#92,#94,.T.);
#92 = VERTEX_POINT('',#93);
#93 = CARTESIAN_POINT('',(3.947502515726,39.852337135986,10.6835858));
#94 = CIRCLE('',#95,1.283435444594);
#95 = AXIS2_PLACEMENT_3D('',#96,#97,#98);
#96 = CARTESIAN_POINT('',(3.947502515726,41.13577258058,10.6835858));
#97 = DIRECTION('',(-1.,0.,0.));
#98 = DIRECTION('',(0.,-1.,0.));
#99 = ORIENTED_EDGE('',*,*,#100,.T.);
#100 = EDGE_CURVE('',#92,#101,#103,.T.);
#101 = VERTEX_POINT('',#102);
#102 = CARTESIAN_POINT('',(3.947502515726,39.852337135986,
    12.025180355405));
#103 = LINE('',#104,#105);
#104 = CARTESIAN_POINT('',(3.947502515726,39.852337135986,10.6835858));
#105 = VECTOR('',#106,1.);
#106 = DIRECTION('',(0.,0.,1.));
#107 = ORIENTED_EDGE('',*,*,#108,.T.);
#108 = EDGE_CURVE('',#101,#109,#111,.T.);
#109 = VERTEX_POINT('',#110);
#110 = CARTESIAN_POINT('',(3.947502515726,41.13577258058,13.3086158));
#111 = CIRCLE('',#112,1.283435444594);
#112 = AXIS2_PLACEMENT_3D('',#113,#114,#115);
#113 = CARTESIAN_POINT('',(3.947502515726,41.13577258058,12.025180355405
    ));
#114 = DIRECTION('',(-1.,0.,0.));
#115 = DIRECTION('',(0.,-1.,0.));
#116 = ORIENTED_EDGE('',*,*,#117,.T.);
#117 = EDGE_CURVE('',#109,#56,#118,.T.);
#118 = LINE('',#119,#120);
#119 = CARTESIAN_POINT('',(3.947502515726,41.13577258058,13.3086158));
#120 = VECTOR('',#121,1.);
#121 = DIRECTION('',(0.,1.,0.));
#122 = PLANE('',#123);
#123 = AXIS2_PLACEMENT_3D('',#124,#125,#126);
#124 = CARTESIAN_POINT('',(3.947502515726,135.94683259077,0.));
#125 = DIRECTION('',(1.,0.,0.));
#126 = DIRECTION('',(0.,-1.,0.));
#127 = ADVANCED_FACE('',(#128),#160,.T.);
#128 = FACE_BOUND('',#129,.F.);
#129 = EDGE_LOOP('',(#130,#131,#145,#153));
#130 = ORIENTED_EDGE('',*,*,#21,.F.);
#131 = ORIENTED_EDGE('',*,*,#132,.F.);
#132 = EDGE_CURVE('',#133,#22,#135,.T.);
#133 = VERTEX_POINT('',#134);
#134 = CARTESIAN_POINT('',(7.947502515726,135.94683259077,8.));
#135 = B_SPLINE_CURVE_WITH_KNOTS('',8,(#136,#137,#138,#139,#140,#141,
    #142,#143,#144),.UNSPECIFIED.,.F.,.F.,(9,9),(0.,1.),
  .PIECEWISE_BEZIER_KNOTS.);
#136 = CARTESIAN_POINT('',(7.947502515726,135.94683259077,8.));
#137 = CARTESIAN_POINT('',(7.162104380233,135.94683259077,8.));
#138 = CARTESIAN_POINT('',(6.376705872323,135.77058945141,8.));
#139 = CARTESIAN_POINT('',(5.637449670957,135.41810479664,8.));
#140 = CARTESIAN_POINT('',(4.990467402467,134.90386770402,8.));
#141 = CARTESIAN_POINT('',(4.476230309863,134.25688543556,8.));
#142 = CARTESIAN_POINT('',(4.123745655081,133.51762923416,8.));
#143 = CARTESIAN_POINT('',(3.947502515726,132.73223072627,8.));
#144 = CARTESIAN_POINT('',(3.947502515726,131.94683259077,8.));
#145 = ORIENTED_EDGE('',*,*,#146,.T.);
#146 = EDGE_CURVE('',#133,#147,#149,.T.);
#147 = VERTEX_POINT('',#148);
#148 = CARTESIAN_POINT('',(7.947502515726,135.94683259077,22.));
#149 = LINE('',#150,#151);
#150 = CARTESIAN_POINT('',(7.947502515726,135.94683259077,0.));
#151 = VECTOR('',#152,1.);
#152 = DIRECTION('',(0.,0.,1.));
#153 = ORIENTED_EDGE('',*,*,#154,.F.);
#154 = EDGE_CURVE('',#24,#147,#155,.T.);
#155 = CIRCLE('',#156,4.);
#156 = AXIS2_PLACEMENT_3D('',#157,#158,#159);
#157 = CARTESIAN_POINT('',(7.947502515726,131.94683259077,22.));
#158 = DIRECTION('',(-0.,-0.,-1.));
#159 = DIRECTION('',(0.,-1.,0.));
#160 = CYLINDRICAL_SURFACE('',#161,4.);
#161 = AXIS2_PLACEMENT_3D('',#162,#163,#164);
#162 = CARTESIAN_POINT('',(7.947502515726,131.94683259077,0.));
#163 = DIRECTION('',(0.,0.,1.));
#164 = DIRECTION('',(-1.,0.,0.));
#165 = ADVANCED_FACE('',(#166),#202,.T.);
#166 = FACE_BOUND('',#167,.T.);
#167 = EDGE_LOOP('',(#168,#183,#191,#201));
#168 = ORIENTED_EDGE('',*,*,#169,.T.);
#169 = EDGE_CURVE('',#22,#170,#172,.T.);
#170 = VERTEX_POINT('',#171);
#171 = CARTESIAN_POINT('',(11.947502515726,127.94683259077,-1.E-15));
#172 = B_SPLINE_CURVE_WITH_KNOTS('',9,(#173,#174,#175,#176,#177,#178,
    #179,#180,#181,#182),.UNSPECIFIED.,.F.,.F.,(10,10),(0.,1.),
  .PIECEWISE_BEZIER_KNOTS.);
#173 = CARTESIAN_POINT('',(3.947502515726,131.94683259077,8.));
#174 = CARTESIAN_POINT('',(3.947502515726,131.50238814633,6.603736598405
    ));
#175 = CARTESIAN_POINT('',(4.221658171371,131.05794370189,5.2074731768)
  );
#176 = CARTESIAN_POINT('',(4.769969674463,130.61349925743,3.872730294713
    ));
#177 = CARTESIAN_POINT('',(5.576330200442,130.16905481301,2.661027640951
    ));
#178 = CARTESIAN_POINT('',(6.608530156677,129.72461036853,1.628827684715
    ));
#179 = CARTESIAN_POINT('',(7.82023281044,129.28016592412,0.822467158737)
  );
#180 = CARTESIAN_POINT('',(9.154975692527,128.83572147965,0.274155655644
    ));
#181 = CARTESIAN_POINT('',(10.551239114131,128.39127703522,1.14E-14));
#182 = CARTESIAN_POINT('',(11.947502515726,127.94683259077,-1.33E-15));
#183 = ORIENTED_EDGE('',*,*,#184,.T.);
#184 = EDGE_CURVE('',#170,#185,#187,.T.);
#185 = VERTEX_POINT('',#186);
#186 = CARTESIAN_POINT('',(11.947502515726,34.997415477481,-2.E-15));
#187 = LINE('',#188,#189);
#188 = CARTESIAN_POINT('',(11.947502515726,131.94683259077,-1.78E-15));
#189 = VECTOR('',#190,1.);
#190 = DIRECTION('',(0.,-1.,0.));
#191 = ORIENTED_EDGE('',*,*,#192,.F.);
#192 = EDGE_CURVE('',#40,#185,#193,.T.);
#193 = B_SPLINE_CURVE_WITH_KNOTS('',6,(#194,#195,#196,#197,#198,#199,
    #200),.UNSPECIFIED.,.F.,.F.,(7,7),(0.,1.),.PIECEWISE_BEZIER_KNOTS.);
#194 = CARTESIAN_POINT('',(3.947502515726,30.997415477481,8.));
#195 = CARTESIAN_POINT('',(3.947502515726,31.664082144148,5.905604897607
    ));
#196 = CARTESIAN_POINT('',(4.605324003888,32.330748810814,3.811387994359
    ));
#197 = CARTESIAN_POINT('',(5.921981318605,32.997415477481,1.974478802879
    ));
#198 = CARTESIAN_POINT('',(7.758890510085,33.664082144147,0.657821488162
    ));
#199 = CARTESIAN_POINT('',(9.853107413333,34.330748810815,-8.4E-16));
#200 = CARTESIAN_POINT('',(11.947502515726,34.997415477481,-1.78E-15));
#201 = ORIENTED_EDGE('',*,*,#47,.F.);
#202 = CYLINDRICAL_SURFACE('',#203,8.);
#203 = AXIS2_PLACEMENT_3D('',#204,#205,#206);
#204 = CARTESIAN_POINT('',(11.947502515726,131.94683259077,8.));
#205 = DIRECTION('',(0.,-1.,0.));
#206 = DIRECTION('',(-1.,0.,0.));
#207 = ADVANCED_FACE('',(#208,#261),#331,.T.);
#208 = FACE_BOUND('',#209,.T.);
#209 = EDGE_LOOP('',(#210,#211,#220,#228,#237,#245,#254,#260));
#210 = ORIENTED_EDGE('',*,*,#31,.T.);
#211 = ORIENTED_EDGE('',*,*,#212,.T.);
#212 = EDGE_CURVE('',#32,#213,#215,.T.);
#213 = VERTEX_POINT('',#214);
#214 = CARTESIAN_POINT('',(7.947502515726,26.997415477481,22.));
#215 = CIRCLE('',#216,4.);
#216 = AXIS2_PLACEMENT_3D('',#217,#218,#219);
#217 = CARTESIAN_POINT('',(7.947502515726,30.997415477481,22.));
#218 = DIRECTION('',(-0.,0.,1.));
#219 = DIRECTION('',(0.,-1.,0.));
#220 = ORIENTED_EDGE('',*,*,#221,.T.);
#221 = EDGE_CURVE('',#213,#222,#224,.T.);
#222 = VERTEX_POINT('',#223);
#223 = CARTESIAN_POINT('',(71.311475815507,26.997415477481,22.));
#224 = LINE('',#225,#226);
#225 = CARTESIAN_POINT('',(3.947502515726,26.997415477481,22.));
#226 = VECTOR('',#227,1.);
#227 = DIRECTION('',(1.,0.,0.));
#228 = ORIENTED_EDGE('',*,*,#229,.T.);
#229 = EDGE_CURVE('',#222,#230,#232,.T.);
#230 = VERTEX_POINT('',#231);
#231 = CARTESIAN_POINT('',(75.311475815507,30.997415477481,22.));
#232 = CIRCLE('',#233,4.);
#233 = AXIS2_PLACEMENT_3D('',#234,#235,#236);
#234 = CARTESIAN_POINT('',(71.311475815507,30.997415477481,22.));
#235 = DIRECTION('',(-0.,0.,1.));
#236 = DIRECTION('',(0.,-1.,0.));
#237 = ORIENTED_EDGE('',*,*,#238,.T.);
#238 = EDGE_CURVE('',#230,#239,#241,.T.);
#239 = VERTEX_POINT('',#240);
#240 = CARTESIAN_POINT('',(75.311475815507,131.94683259077,22.));
#241 = LINE('',#242,#243);
#242 = CARTESIAN_POINT('',(75.311475815507,26.997415477481,22.));
#243 = VECTOR('',#244,1.);
#244 = DIRECTION('',(0.,1.,0.));
#245 = ORIENTED_EDGE('',*,*,#246,.F.);
#246 = EDGE_CURVE('',#247,#239,#249,.T.);
#247 = VERTEX_POINT('',#248);
#248 = CARTESIAN_POINT('',(71.311475815507,135.94683259077,22.));
#249 = CIRCLE('',#250,4.);
#250 = AXIS2_PLACEMENT_3D('',#251,#252,#253);
#251 = CARTESIAN_POINT('',(71.311475815507,131.94683259077,22.));
#252 = DIRECTION('',(-0.,-0.,-1.));
#253 = DIRECTION('',(0.,-1.,0.));
#254 = ORIENTED_EDGE('',*,*,#255,.T.);
#255 = EDGE_CURVE('',#247,#147,#256,.T.);
#256 = LINE('',#257,#258);
#257 = CARTESIAN_POINT('',(75.311475815507,135.94683259077,22.));
#258 = VECTOR('',#259,1.);
#259 = DIRECTION('',(-1.,0.,0.));
#260 = ORIENTED_EDGE('',*,*,#154,.F.);
#261 = FACE_BOUND('',#262,.T.);
#262 = EDGE_LOOP('',(#263,#273,#282,#290,#299,#307,#316,#324));
#263 = ORIENTED_EDGE('',*,*,#264,.F.);
#264 = EDGE_CURVE('',#265,#267,#269,.T.);
#265 = VERTEX_POINT('',#266);
#266 = CARTESIAN_POINT('',(6.21527,129.798,22.));
#267 = VERTEX_POINT('',#268);
#268 = CARTESIAN_POINT('',(6.21527,33.3453,22.));
#269 = LINE('',#270,#271);
#270 = CARTESIAN_POINT('',(6.21527,133.798,22.));
#271 = VECTOR('',#272,1.);
#272 = DIRECTION('',(0.,-1.,0.));
#273 = ORIENTED_EDGE('',*,*,#274,.T.);
#274 = EDGE_CURVE('',#265,#275,#277,.T.);
#275 = VERTEX_POINT('',#276);
#276 = CARTESIAN_POINT('',(10.21527,133.798,22.));
#277 = CIRCLE('',#278,4.);
#278 = AXIS2_PLACEMENT_3D('',#279,#280,#281);
#279 = CARTESIAN_POINT('',(10.21527,129.798,22.));
#280 = DIRECTION('',(0.,0.,-1.));
#281 = DIRECTION('',(0.,1.,0.));
#282 = ORIENTED_EDGE('',*,*,#283,.F.);
#283 = EDGE_CURVE('',#284,#275,#286,.T.);
#284 = VERTEX_POINT('',#285);
#285 = CARTESIAN_POINT('',(68.6655,133.798,22.));
#286 = LINE('',#287,#288);
#287 = CARTESIAN_POINT('',(72.6655,133.798,22.));
#288 = VECTOR('',#289,1.);
#289 = DIRECTION('',(-1.,0.,0.));
#290 = ORIENTED_EDGE('',*,*,#291,.F.);
#291 = EDGE_CURVE('',#292,#284,#294,.T.);
#292 = VERTEX_POINT('',#293);
#293 = CARTESIAN_POINT('',(72.6655,129.798,22.));
#294 = CIRCLE('',#295,4.);
#295 = AXIS2_PLACEMENT_3D('',#296,#297,#298);
#296 = CARTESIAN_POINT('',(68.6655,129.798,22.));
#297 = DIRECTION('',(0.,-0.,1.));
#298 = DIRECTION('',(0.,1.,0.));
#299 = ORIENTED_EDGE('',*,*,#300,.F.);
#300 = EDGE_CURVE('',#301,#292,#303,.T.);
#301 = VERTEX_POINT('',#302);
#302 = CARTESIAN_POINT('',(72.6655,33.3453,22.));
#303 = LINE('',#304,#305);
#304 = CARTESIAN_POINT('',(72.6655,29.3453,22.));
#305 = VECTOR('',#306,1.);
#306 = DIRECTION('',(0.,1.,0.));
#307 = ORIENTED_EDGE('',*,*,#308,.F.);
#308 = EDGE_CURVE('',#309,#301,#311,.T.);
#309 = VERTEX_POINT('',#310);
#310 = CARTESIAN_POINT('',(68.6655,29.3453,22.));
#311 = CIRCLE('',#312,4.);
#312 = AXIS2_PLACEMENT_3D('',#313,#314,#315);
#313 = CARTESIAN_POINT('',(68.6655,33.3453,22.));
#314 = DIRECTION('',(0.,-0.,1.));
#315 = DIRECTION('',(0.,1.,0.));
#316 = ORIENTED_EDGE('',*,*,#317,.F.);
#317 = EDGE_CURVE('',#318,#309,#320,.T.);
#318 = VERTEX_POINT('',#319);
#319 = CARTESIAN_POINT('',(10.21527,29.3453,22.));
#320 = LINE('',#321,#322);
#321 = CARTESIAN_POINT('',(6.21527,29.3453,22.));
#322 = VECTOR('',#323,1.);
#323 = DIRECTION('',(1.,0.,0.));
#324 = ORIENTED_EDGE('',*,*,#325,.F.);
#325 = EDGE_CURVE('',#267,#318,#326,.T.);
#326 = CIRCLE('',#327,4.);
#327 = AXIS2_PLACEMENT_3D('',#328,#329,#330);
#328 = CARTESIAN_POINT('',(10.21527,33.3453,22.));
#329 = DIRECTION('',(0.,-0.,1.));
#330 = DIRECTION('',(0.,1.,0.));
#331 = PLANE('',#332);
#332 = AXIS2_PLACEMENT_3D('',#333,#334,#335);
#333 = CARTESIAN_POINT('',(39.629489165617,81.472124034128,22.));
#334 = DIRECTION('',(0.,0.,1.));
#335 = DIRECTION('',(1.,0.,0.));
#336 = ADVANCED_FACE('',(#337),#361,.T.);
#337 = FACE_BOUND('',#338,.T.);
#338 = EDGE_LOOP('',(#339,#340,#354,#360));
#339 = ORIENTED_EDGE('',*,*,#39,.F.);
#340 = ORIENTED_EDGE('',*,*,#341,.T.);
#341 = EDGE_CURVE('',#40,#342,#344,.T.);
#342 = VERTEX_POINT('',#343);
#343 = CARTESIAN_POINT('',(7.947502515726,26.997415477481,8.));
#344 = B_SPLINE_CURVE_WITH_KNOTS('',8,(#345,#346,#347,#348,#349,#350,
    #351,#352,#353),.UNSPECIFIED.,.F.,.F.,(9,9),(0.,1.),
  .PIECEWISE_BEZIER_KNOTS.);
#345 = CARTESIAN_POINT('',(3.947502515726,30.997415477481,8.));
#346 = CARTESIAN_POINT('',(3.947502515726,30.212017341987,8.));
#347 = CARTESIAN_POINT('',(4.123745655078,29.426618834079,8.));
#348 = CARTESIAN_POINT('',(4.476230309873,28.68736263271,8.));
#349 = CARTESIAN_POINT('',(4.990467402448,28.040380364223,8.));
#350 = CARTESIAN_POINT('',(5.637449670978,27.526143271617,8.));
#351 = CARTESIAN_POINT('',(6.376705872309,27.173658616835,8.));
#352 = CARTESIAN_POINT('',(7.162104380239,26.997415477481,8.));
#353 = CARTESIAN_POINT('',(7.947502515726,26.997415477481,8.));
#354 = ORIENTED_EDGE('',*,*,#355,.T.);
#355 = EDGE_CURVE('',#342,#213,#356,.T.);
#356 = LINE('',#357,#358);
#357 = CARTESIAN_POINT('',(7.947502515726,26.997415477481,0.));
#358 = VECTOR('',#359,1.);
#359 = DIRECTION('',(0.,0.,1.));
#360 = ORIENTED_EDGE('',*,*,#212,.F.);
#361 = CYLINDRICAL_SURFACE('',#362,4.);
#362 = AXIS2_PLACEMENT_3D('',#363,#364,#365);
#363 = CARTESIAN_POINT('',(7.947502515726,30.997415477481,0.));
#364 = DIRECTION('',(0.,0.,1.));
#365 = DIRECTION('',(-1.,0.,0.));
#366 = ADVANCED_FACE('',(#367),#393,.F.);
#367 = FACE_BOUND('',#368,.F.);
#368 = EDGE_LOOP('',(#369,#370,#378,#387));
#369 = ORIENTED_EDGE('',*,*,#55,.F.);
#370 = ORIENTED_EDGE('',*,*,#371,.T.);
#371 = EDGE_CURVE('',#56,#372,#374,.T.);
#372 = VERTEX_POINT('',#373);
#373 = CARTESIAN_POINT('',(6.21527,48.441392555406,13.3086158));
#374 = LINE('',#375,#376);
#375 = CARTESIAN_POINT('',(3.947502515726,48.441392555406,13.3086158));
#376 = VECTOR('',#377,1.);
#377 = DIRECTION('',(1.,0.,0.));
#378 = ORIENTED_EDGE('',*,*,#379,.T.);
#379 = EDGE_CURVE('',#372,#380,#382,.T.);
#380 = VERTEX_POINT('',#381);
#381 = CARTESIAN_POINT('',(6.21527,49.724828,12.025180355405));
#382 = CIRCLE('',#383,1.283435444594);
#383 = AXIS2_PLACEMENT_3D('',#384,#385,#386);
#384 = CARTESIAN_POINT('',(6.21527,48.441392555406,12.025180355405));
#385 = DIRECTION('',(-1.,0.,0.));
#386 = DIRECTION('',(0.,-1.,0.));
#387 = ORIENTED_EDGE('',*,*,#388,.F.);
#388 = EDGE_CURVE('',#58,#380,#389,.T.);
#389 = LINE('',#390,#391);
#390 = CARTESIAN_POINT('',(3.947502515726,49.724828,12.025180355405));
#391 = VECTOR('',#392,1.);
#392 = DIRECTION('',(1.,0.,0.));
#393 = CYLINDRICAL_SURFACE('',#394,1.283435444594);
#394 = AXIS2_PLACEMENT_3D('',#395,#396,#397);
#395 = CARTESIAN_POINT('',(3.947502515726,48.441392555406,
    12.025180355405));
#396 = DIRECTION('',(-1.,0.,0.));
#397 = DIRECTION('',(0.,-1.,0.));
#398 = ADVANCED_FACE('',(#399),#417,.F.);
#399 = FACE_BOUND('',#400,.F.);
#400 = EDGE_LOOP('',(#401,#402,#410,#416));
#401 = ORIENTED_EDGE('',*,*,#117,.F.);
#402 = ORIENTED_EDGE('',*,*,#403,.T.);
#403 = EDGE_CURVE('',#109,#404,#406,.T.);
#404 = VERTEX_POINT('',#405);
#405 = CARTESIAN_POINT('',(6.21527,41.13577258058,13.3086158));
#406 = LINE('',#407,#408);
#407 = CARTESIAN_POINT('',(3.947502515726,41.13577258058,13.3086158));
#408 = VECTOR('',#409,1.);
#409 = DIRECTION('',(1.,0.,0.));
#410 = ORIENTED_EDGE('',*,*,#411,.T.);
#411 = EDGE_CURVE('',#404,#372,#412,.T.);
#412 = LINE('',#413,#414);
#413 = CARTESIAN_POINT('',(6.21527,87.46688629029,13.3086158));
#414 = VECTOR('',#415,1.);
#415 = DIRECTION('',(0.,1.,0.));
#416 = ORIENTED_EDGE('',*,*,#371,.F.);
#417 = PLANE('',#418);
#418 = AXIS2_PLACEMENT_3D('',#419,#420,#421);
#419 = CARTESIAN_POINT('',(3.947502515726,41.13577258058,13.3086158));
#420 = DIRECTION('',(0.,0.,1.));
#421 = DIRECTION('',(0.,1.,0.));
#422 = ADVANCED_FACE('',(#423),#442,.F.);
#423 = FACE_BOUND('',#424,.F.);
#424 = EDGE_LOOP('',(#425,#426,#434,#441));
#425 = ORIENTED_EDGE('',*,*,#108,.F.);
#426 = ORIENTED_EDGE('',*,*,#427,.T.);
#427 = EDGE_CURVE('',#101,#428,#430,.T.);
#428 = VERTEX_POINT('',#429);
#429 = CARTESIAN_POINT('',(6.21527,39.852337135986,12.025180355405));
#430 = LINE('',#431,#432);
#431 = CARTESIAN_POINT('',(3.947502515726,39.852337135986,
    12.025180355405));
#432 = VECTOR('',#433,1.);
#433 = DIRECTION('',(1.,0.,0.));
#434 = ORIENTED_EDGE('',*,*,#435,.T.);
#435 = EDGE_CURVE('',#428,#404,#436,.T.);
#436 = CIRCLE('',#437,1.283435444594);
#437 = AXIS2_PLACEMENT_3D('',#438,#439,#440);
#438 = CARTESIAN_POINT('',(6.21527,41.13577258058,12.025180355405));
#439 = DIRECTION('',(-1.,0.,0.));
#440 = DIRECTION('',(0.,-1.,0.));
#441 = ORIENTED_EDGE('',*,*,#403,.F.);
#442 = CYLINDRICAL_SURFACE('',#443,1.283435444594);
#443 = AXIS2_PLACEMENT_3D('',#444,#445,#446);
#444 = CARTESIAN_POINT('',(3.947502515726,41.13577258058,12.025180355405
    ));
#445 = DIRECTION('',(-1.,0.,0.));
#446 = DIRECTION('',(0.,-1.,0.));
#447 = ADVANCED_FACE('',(#448),#466,.F.);
#448 = FACE_BOUND('',#449,.F.);
#449 = EDGE_LOOP('',(#450,#451,#459,#465));
#450 = ORIENTED_EDGE('',*,*,#100,.F.);
#451 = ORIENTED_EDGE('',*,*,#452,.T.);
#452 = EDGE_CURVE('',#92,#453,#455,.T.);
#453 = VERTEX_POINT('',#454);
#454 = CARTESIAN_POINT('',(6.21527,39.852337135986,10.6835858));
#455 = LINE('',#456,#457);
#456 = CARTESIAN_POINT('',(3.947502515726,39.852337135986,10.6835858));
#457 = VECTOR('',#458,1.);
#458 = DIRECTION('',(1.,0.,0.));
#459 = ORIENTED_EDGE('',*,*,#460,.T.);
#460 = EDGE_CURVE('',#453,#428,#461,.T.);
#461 = LINE('',#462,#463);
#462 = CARTESIAN_POINT('',(6.21527,39.852337135986,16.3417929));
#463 = VECTOR('',#464,1.);
#464 = DIRECTION('',(0.,0.,1.));
#465 = ORIENTED_EDGE('',*,*,#427,.F.);
#466 = PLANE('',#467);
#467 = AXIS2_PLACEMENT_3D('',#468,#469,#470);
#468 = CARTESIAN_POINT('',(3.947502515726,39.852337135986,10.6835858));
#469 = DIRECTION('',(0.,-1.,0.));
#470 = DIRECTION('',(0.,0.,1.));
#471 = ADVANCED_FACE('',(#472),#491,.F.);
#472 = FACE_BOUND('',#473,.F.);
#473 = EDGE_LOOP('',(#474,#475,#483,#490));
#474 = ORIENTED_EDGE('',*,*,#91,.F.);
#475 = ORIENTED_EDGE('',*,*,#476,.T.);
#476 = EDGE_CURVE('',#84,#477,#479,.T.);
#477 = VERTEX_POINT('',#478);
#478 = CARTESIAN_POINT('',(6.21527,41.13577258058,9.400150355406));
#479 = LINE('',#480,#481);
#480 = CARTESIAN_POINT('',(3.947502515726,41.13577258058,9.400150355406)
  );
#481 = VECTOR('',#482,1.);
#482 = DIRECTION('',(1.,0.,0.));
#483 = ORIENTED_EDGE('',*,*,#484,.T.);
#484 = EDGE_CURVE('',#477,#453,#485,.T.);
#485 = CIRCLE('',#486,1.283435444594);
#486 = AXIS2_PLACEMENT_3D('',#487,#488,#489);
#487 = CARTESIAN_POINT('',(6.21527,41.13577258058,10.6835858));
#488 = DIRECTION('',(-1.,0.,0.));
#489 = DIRECTION('',(0.,-1.,0.));
#490 = ORIENTED_EDGE('',*,*,#452,.F.);
#491 = CYLINDRICAL_SURFACE('',#492,1.283435444594);
#492 = AXIS2_PLACEMENT_3D('',#493,#494,#495);
#493 = CARTESIAN_POINT('',(3.947502515726,41.13577258058,10.6835858));
#494 = DIRECTION('',(-1.,0.,0.));
#495 = DIRECTION('',(0.,-1.,0.));
#496 = ADVANCED_FACE('',(#497),#515,.F.);
#497 = FACE_BOUND('',#498,.F.);
#498 = EDGE_LOOP('',(#499,#500,#508,#514));
#499 = ORIENTED_EDGE('',*,*,#83,.F.);
#500 = ORIENTED_EDGE('',*,*,#501,.T.);
#501 = EDGE_CURVE('',#75,#502,#504,.T.);
#502 = VERTEX_POINT('',#503);
#503 = CARTESIAN_POINT('',(6.21527,48.441392555406,9.400150355406));
#504 = LINE('',#505,#506);
#505 = CARTESIAN_POINT('',(3.947502515726,48.441392555406,9.400150355406
    ));
#506 = VECTOR('',#507,1.);
#507 = DIRECTION('',(1.,0.,0.));
#508 = ORIENTED_EDGE('',*,*,#509,.T.);
#509 = EDGE_CURVE('',#502,#477,#510,.T.);
#510 = LINE('',#511,#512);
#511 = CARTESIAN_POINT('',(6.21527,91.119696277703,9.400150355406));
#512 = VECTOR('',#513,1.);
#513 = DIRECTION('',(-0.,-1.,-0.));
#514 = ORIENTED_EDGE('',*,*,#476,.F.);
#515 = PLANE('',#516);
#516 = AXIS2_PLACEMENT_3D('',#517,#518,#519);
#517 = CARTESIAN_POINT('',(3.947502515726,48.441392555406,9.400150355406
    ));
#518 = DIRECTION('',(0.,0.,-1.));
#519 = DIRECTION('',(0.,-1.,0.));
#520 = ADVANCED_FACE('',(#521),#540,.F.);
#521 = FACE_BOUND('',#522,.F.);
#522 = EDGE_LOOP('',(#523,#524,#532,#539));
#523 = ORIENTED_EDGE('',*,*,#74,.F.);
#524 = ORIENTED_EDGE('',*,*,#525,.T.);
#525 = EDGE_CURVE('',#67,#526,#528,.T.);
#526 = VERTEX_POINT('',#527);
#527 = CARTESIAN_POINT('',(6.21527,49.724828,10.6835858));
#528 = LINE('',#529,#530);
#529 = CARTESIAN_POINT('',(3.947502515726,49.724828,10.6835858));
#530 = VECTOR('',#531,1.);
#531 = DIRECTION('',(1.,0.,0.));
#532 = ORIENTED_EDGE('',*,*,#533,.T.);
#533 = EDGE_CURVE('',#526,#502,#534,.T.);
#534 = CIRCLE('',#535,1.283435444594);
#535 = AXIS2_PLACEMENT_3D('',#536,#537,#538);
#536 = CARTESIAN_POINT('',(6.21527,48.441392555406,10.6835858));
#537 = DIRECTION('',(-1.,0.,0.));
#538 = DIRECTION('',(0.,-1.,0.));
#539 = ORIENTED_EDGE('',*,*,#501,.F.);
#540 = CYLINDRICAL_SURFACE('',#541,1.283435444594);
#541 = AXIS2_PLACEMENT_3D('',#542,#543,#544);
#542 = CARTESIAN_POINT('',(3.947502515726,48.441392555406,10.6835858));
#543 = DIRECTION('',(-1.,0.,0.));
#544 = DIRECTION('',(0.,-1.,0.));
#545 = ADVANCED_FACE('',(#546),#557,.F.);
#546 = FACE_BOUND('',#547,.F.);
#547 = EDGE_LOOP('',(#548,#549,#550,#556));
#548 = ORIENTED_EDGE('',*,*,#66,.F.);
#549 = ORIENTED_EDGE('',*,*,#388,.T.);
#550 = ORIENTED_EDGE('',*,*,#551,.T.);
#551 = EDGE_CURVE('',#380,#526,#552,.T.);
#552 = LINE('',#553,#554);
#553 = CARTESIAN_POINT('',(6.21527,49.724828,17.012590177703));
#554 = VECTOR('',#555,1.);
#555 = DIRECTION('',(0.,0.,-1.));
#556 = ORIENTED_EDGE('',*,*,#525,.F.);
#557 = PLANE('',#558);
#558 = AXIS2_PLACEMENT_3D('',#559,#560,#561);
#559 = CARTESIAN_POINT('',(3.947502515726,49.724828,12.025180355405));
#560 = DIRECTION('',(0.,1.,0.));
#561 = DIRECTION('',(0.,0.,-1.));
#562 = ADVANCED_FACE('',(#563),#577,.F.);
#563 = FACE_BOUND('',#564,.F.);
#564 = EDGE_LOOP('',(#565,#575,#576));
#565 = ORIENTED_EDGE('',*,*,#566,.F.);
#566 = EDGE_CURVE('',#133,#170,#567,.T.);
#567 = B_SPLINE_CURVE_WITH_KNOTS('',6,(#568,#569,#570,#571,#572,#573,
    #574),.UNSPECIFIED.,.F.,.F.,(7,7),(0.,1.),.PIECEWISE_BEZIER_KNOTS.);
#568 = CARTESIAN_POINT('',(7.947502515726,135.94683259077,8.));
#569 = CARTESIAN_POINT('',(8.614169182393,135.94683259077,5.905604897607
    ));
#570 = CARTESIAN_POINT('',(9.280835849059,135.28901110261,3.811387994359
    ));
#571 = CARTESIAN_POINT('',(9.947502515726,133.97235378789,1.974478802879
    ));
#572 = CARTESIAN_POINT('',(10.614169182393,132.13544459641,
    0.657821488162));
#573 = CARTESIAN_POINT('',(11.280835849059,130.04122769316,-8.4E-16));
#574 = CARTESIAN_POINT('',(11.947502515726,127.94683259077,-1.78E-15));
#575 = ORIENTED_EDGE('',*,*,#132,.T.);
#576 = ORIENTED_EDGE('',*,*,#169,.T.);
#577 = B_SPLINE_SURFACE_WITH_KNOTS('',8,9,(
    (#578,#579,#580,#581,#582,#583,#584,#585,#586,#587)
    ,(#588,#589,#590,#591,#592,#593,#594,#595,#596,#597)
    ,(#598,#599,#600,#601,#602,#603,#604,#605,#606,#607)
    ,(#608,#609,#610,#611,#612,#613,#614,#615,#616,#617)
    ,(#618,#619,#620,#621,#622,#623,#624,#625,#626,#627)
    ,(#628,#629,#630,#631,#632,#633,#634,#635,#636,#637)
    ,(#638,#639,#640,#641,#642,#643,#644,#645,#646,#647)
    ,(#648,#649,#650,#651,#652,#653,#654,#655,#656,#657)
    ,(#658,#659,#660,#661,#662,#663,#664,#665,#666,#667
  )),.UNSPECIFIED.,.F.,.F.,.F.,(9,9),(10,10),(0.,1.),(0.,1.),
  .PIECEWISE_BEZIER_KNOTS.);
#578 = CARTESIAN_POINT('',(7.947502515726,135.94683259077,8.));
#579 = CARTESIAN_POINT('',(8.391946960171,135.94683259077,6.603736598405
    ));
#580 = CARTESIAN_POINT('',(8.836391404615,135.67267693513,5.2074731768)
  );
#581 = CARTESIAN_POINT('',(9.280835849059,135.12436543203,3.872730294713
    ));
#582 = CARTESIAN_POINT('',(9.725280293505,134.31800490606,2.661027640952
    ));
#583 = CARTESIAN_POINT('',(10.169724737948,133.28580494981,
    1.628827684715));
#584 = CARTESIAN_POINT('',(10.614169182393,132.07410229606,
    0.822467158737));
#585 = CARTESIAN_POINT('',(11.058613626837,130.73935941397,
    0.274155655644));
#586 = CARTESIAN_POINT('',(11.503058071282,129.34309599237,3.169E-14));
#587 = CARTESIAN_POINT('',(11.947502515726,127.94683259077,-1.33E-15));
#588 = CARTESIAN_POINT('',(7.162104380233,135.94683259077,8.));
#589 = CARTESIAN_POINT('',(7.582704173066,135.99046582052,6.603736598405
    ));
#590 = CARTESIAN_POINT('',(8.037573422854,135.7381038117,5.163802404796)
  );
#591 = CARTESIAN_POINT('',(8.526712153573,135.16523245957,3.765115462066
    ));
#592 = CARTESIAN_POINT('',(9.048107012153,134.28671846798,2.511353933595
    ));
#593 = CARTESIAN_POINT('',(9.597731799515,133.17609192531,1.498774064957
    ));
#594 = CARTESIAN_POINT('',(10.169794424067,131.93653570291,
    0.747896608958));
#595 = CARTESIAN_POINT('',(10.757237077161,130.62339078036,
    0.249221668878));
#596 = CARTESIAN_POINT('',(11.352369797694,129.27967417828,3.136E-14));
#597 = CARTESIAN_POINT('',(11.947502515726,127.94683259077,-1.3E-15));
#598 = CARTESIAN_POINT('',(6.376705872323,135.77058945141,8.));
#599 = CARTESIAN_POINT('',(6.696839683751,135.87204440396,6.603736598404
    ));
#600 = CARTESIAN_POINT('',(7.001554162522,135.52199134497,5.132608996221
    ));
#601 = CARTESIAN_POINT('',(7.485158098496,134.90056248741,3.688247724461
    ));
#602 = CARTESIAN_POINT('',(8.083429533824,133.96741276799,2.404444142626
    ));
#603 = CARTESIAN_POINT('',(8.774329669636,132.82224544493,1.405878622273
    ));
#604 = CARTESIAN_POINT('',(9.525329320509,131.59804316205,0.694631930544
    ));
#605 = CARTESIAN_POINT('',(10.316121879156,130.35293360146,0.23141167833
    ));
#606 = CARTESIAN_POINT('',(11.067954888037,129.05759245398,2.585E-14));
#607 = CARTESIAN_POINT('',(11.947502515726,127.94683259077,-1.29E-15));
#608 = CARTESIAN_POINT('',(5.637449670957,135.41810479664,8.));
#609 = CARTESIAN_POINT('',(5.793381380574,135.52599572562,6.603736598405
    ));
#610 = CARTESIAN_POINT('',(6.075664375815,135.2180936267,5.113892951076)
  );
#611 = CARTESIAN_POINT('',(6.599724231367,134.61704981703,3.642127081898
    ));
#612 = CARTESIAN_POINT('',(7.316804004286,133.70792510556,2.340298268044
    ));
#613 = CARTESIAN_POINT('',(8.173492778001,132.59366910767,1.350141356663
    ));
#614 = CARTESIAN_POINT('',(9.097469509968,131.40950174295,0.662673123496
    ));
#615 = CARTESIAN_POINT('',(10.052213287933,130.2150647024,0.220725684001
    ));
#616 = CARTESIAN_POINT('',(10.976158295859,129.00319577301,2.286E-14));
#617 = CARTESIAN_POINT('',(11.947502515726,127.94683259077,-1.28E-15));
#618 = CARTESIAN_POINT('',(4.990467402467,134.90386770402,8.));
#619 = CARTESIAN_POINT('',(4.974705466967,134.91962963952,6.603736598404
    ));
#620 = CARTESIAN_POINT('',(5.253787542279,134.64054756422,5.107654269361
    ));
#621 = CARTESIAN_POINT('',(5.818681532597,134.07565357389,3.626753534377
    ));
#622 = CARTESIAN_POINT('',(6.649818764878,133.24451634163,2.31891630985)
  );
#623 = CARTESIAN_POINT('',(7.66203394378,132.23230116271,1.331562268126)
  );
#624 = CARTESIAN_POINT('',(8.743336449275,131.15099865723,0.652020187813
    ));
#625 = CARTESIAN_POINT('',(9.841474977236,130.05286012926,0.217163685892
    ));
#626 = CARTESIAN_POINT('',(10.927415496136,128.96691961036,1.997E-14));
#627 = CARTESIAN_POINT('',(11.947502515726,127.94683259077,-1.28E-15));
#628 = CARTESIAN_POINT('',(4.476230309863,134.25688543556,8.));
#629 = CARTESIAN_POINT('',(4.368339380886,134.10095372594,6.603736598405
    ));
#630 = CARTESIAN_POINT('',(4.676241479801,133.8186707307,5.113892951076)
  );
#631 = CARTESIAN_POINT('',(5.277285289456,133.29461087513,3.642127081898
    ));
#632 = CARTESIAN_POINT('',(6.186410000951,132.57753110223,2.340298268044
    ));
#633 = CARTESIAN_POINT('',(7.300665998823,131.72084232849,1.350141356663
    ));
#634 = CARTESIAN_POINT('',(8.48483336355,130.79686559654,0.662673123496)
  );
#635 = CARTESIAN_POINT('',(9.679270404098,129.84212181856,0.220725684001
    ));
#636 = CARTESIAN_POINT('',(10.891139333483,128.91817681064,1.728E-14));
#637 = CARTESIAN_POINT('',(11.947502515726,127.94683259077,-1.29E-15));
#638 = CARTESIAN_POINT('',(4.123745655081,133.51762923416,8.));
#639 = CARTESIAN_POINT('',(4.022290702541,133.19749542274,6.603736598405
    ));
#640 = CARTESIAN_POINT('',(4.372343761533,132.89278094398,5.132608996221
    ));
#641 = CARTESIAN_POINT('',(4.993772619086,132.40917700799,3.688247724461
    ));
#642 = CARTESIAN_POINT('',(5.926922338518,131.81090557269,2.404444142626
    ));
#643 = CARTESIAN_POINT('',(7.072089661561,131.12000543685,1.405878622273
    ));
#644 = CARTESIAN_POINT('',(8.296291944456,130.369005786,0.694631930544)
  );
#645 = CARTESIAN_POINT('',(9.541401505037,129.57821322733,0.23141167833)
  );
#646 = CARTESIAN_POINT('',(10.83674265252,128.82638021846,1.488E-14));
#647 = CARTESIAN_POINT('',(11.947502515726,127.94683259077,-1.3E-15));
#648 = CARTESIAN_POINT('',(3.947502515726,132.73223072627,8.));
#649 = CARTESIAN_POINT('',(3.903869285976,132.31163093344,6.603736598405
    ));
#650 = CARTESIAN_POINT('',(4.156231294796,131.85676168365,5.163802404796
    ));
#651 = CARTESIAN_POINT('',(4.729102646921,131.36762295292,3.765115462066
    ));
#652 = CARTESIAN_POINT('',(5.607616638522,130.84622809437,2.511353933595
    ));
#653 = CARTESIAN_POINT('',(6.71824318118,130.29660330697,1.498774064958)
  );
#654 = CARTESIAN_POINT('',(7.957799403586,129.72454068244,0.747896608958
    ));
#655 = CARTESIAN_POINT('',(9.270944326137,129.13709802933,0.249221668878
    ));
#656 = CARTESIAN_POINT('',(10.614660928219,128.5419653088,1.035E-14));
#657 = CARTESIAN_POINT('',(11.947502515726,127.94683259077,-1.32E-15));
#658 = CARTESIAN_POINT('',(3.947502515726,131.94683259077,8.));
#659 = CARTESIAN_POINT('',(3.947502515726,131.50238814633,6.603736598405
    ));
#660 = CARTESIAN_POINT('',(4.221658171371,131.05794370189,5.2074731768)
  );
#661 = CARTESIAN_POINT('',(4.769969674463,130.61349925743,3.872730294713
    ));
#662 = CARTESIAN_POINT('',(5.576330200442,130.16905481301,2.661027640951
    ));
#663 = CARTESIAN_POINT('',(6.608530156677,129.72461036853,1.628827684715
    ));
#664 = CARTESIAN_POINT('',(7.82023281044,129.28016592412,0.822467158737)
  );
#665 = CARTESIAN_POINT('',(9.154975692527,128.83572147965,0.274155655644
    ));
#666 = CARTESIAN_POINT('',(10.551239114131,128.39127703522,1.14E-14));
#667 = CARTESIAN_POINT('',(11.947502515726,127.94683259077,-1.33E-15));
#668 = ADVANCED_FACE('',(#669),#687,.F.);
#669 = FACE_BOUND('',#670,.F.);
#670 = EDGE_LOOP('',(#671,#679,#680,#681));
#671 = ORIENTED_EDGE('',*,*,#672,.T.);
#672 = EDGE_CURVE('',#673,#247,#675,.T.);
#673 = VERTEX_POINT('',#674);
#674 = CARTESIAN_POINT('',(71.311475815507,135.94683259077,8.));
#675 = LINE('',#676,#677);
#676 = CARTESIAN_POINT('',(71.311475815507,135.94683259077,0.));
#677 = VECTOR('',#678,1.);
#678 = DIRECTION('',(0.,0.,1.));
#679 = ORIENTED_EDGE('',*,*,#255,.T.);
#680 = ORIENTED_EDGE('',*,*,#146,.F.);
#681 = ORIENTED_EDGE('',*,*,#682,.F.);
#682 = EDGE_CURVE('',#673,#133,#683,.T.);
#683 = LINE('',#684,#685);
#684 = CARTESIAN_POINT('',(71.311475815507,135.94683259077,8.));
#685 = VECTOR('',#686,1.);
#686 = DIRECTION('',(-1.,0.,0.));
#687 = PLANE('',#688);
#688 = AXIS2_PLACEMENT_3D('',#689,#690,#691);
#689 = CARTESIAN_POINT('',(75.311475815507,135.94683259077,0.));
#690 = DIRECTION('',(0.,-1.,0.));
#691 = DIRECTION('',(-1.,0.,0.));
#692 = ADVANCED_FACE('',(#693),#718,.F.);
#693 = FACE_BOUND('',#694,.F.);
#694 = EDGE_LOOP('',(#695,#705,#711,#712));
#695 = ORIENTED_EDGE('',*,*,#696,.T.);
#696 = EDGE_CURVE('',#697,#699,#701,.T.);
#697 = VERTEX_POINT('',#698);
#698 = CARTESIAN_POINT('',(67.311475815507,34.997415477481,-1.E-15));
#699 = VERTEX_POINT('',#700);
#700 = CARTESIAN_POINT('',(67.311475815507,127.94683259077,-3.E-15));
#701 = LINE('',#702,#703);
#702 = CARTESIAN_POINT('',(67.311475815507,30.997415477481,-1.78E-15));
#703 = VECTOR('',#704,1.);
#704 = DIRECTION('',(0.,1.,0.));
#705 = ORIENTED_EDGE('',*,*,#706,.T.);
#706 = EDGE_CURVE('',#699,#170,#707,.T.);
#707 = LINE('',#708,#709);
#708 = CARTESIAN_POINT('',(71.311475815507,127.94683259077,-1.78E-15));
#709 = VECTOR('',#710,1.);
#710 = DIRECTION('',(-1.,0.,0.));
#711 = ORIENTED_EDGE('',*,*,#184,.T.);
#712 = ORIENTED_EDGE('',*,*,#713,.T.);
#713 = EDGE_CURVE('',#185,#697,#714,.T.);
#714 = LINE('',#715,#716);
#715 = CARTESIAN_POINT('',(7.947502515726,34.997415477481,-1.78E-15));
#716 = VECTOR('',#717,1.);
#717 = DIRECTION('',(1.,0.,0.));
#718 = PLANE('',#719);
#719 = AXIS2_PLACEMENT_3D('',#720,#721,#722);
#720 = CARTESIAN_POINT('',(39.629489165617,81.472124034128,0.));
#721 = DIRECTION('',(0.,0.,1.));
#722 = DIRECTION('',(1.,0.,0.));
#723 = ADVANCED_FACE('',(#724),#741,.F.);
#724 = FACE_BOUND('',#725,.F.);
#725 = EDGE_LOOP('',(#726,#727,#728));
#726 = ORIENTED_EDGE('',*,*,#192,.F.);
#727 = ORIENTED_EDGE('',*,*,#341,.T.);
#728 = ORIENTED_EDGE('',*,*,#729,.T.);
#729 = EDGE_CURVE('',#342,#185,#730,.T.);
#730 = B_SPLINE_CURVE_WITH_KNOTS('',9,(#731,#732,#733,#734,#735,#736,
    #737,#738,#739,#740),.UNSPECIFIED.,.F.,.F.,(10,10),(0.,1.),
  .PIECEWISE_BEZIER_KNOTS.);
#731 = CARTESIAN_POINT('',(7.947502515726,26.997415477481,8.));
#732 = CARTESIAN_POINT('',(8.391946960171,26.997415477481,6.603736598405
    ));
#733 = CARTESIAN_POINT('',(8.836391404616,27.271571133127,5.2074731768)
  );
#734 = CARTESIAN_POINT('',(9.280835849058,27.819882636216,3.872730294713
    ));
#735 = CARTESIAN_POINT('',(9.725280293506,28.6262431622,2.661027640952)
  );
#736 = CARTESIAN_POINT('',(10.169724737947,29.65844311843,1.628827684715
    ));
#737 = CARTESIAN_POINT('',(10.614169182394,30.870145772196,
    0.822467158737));
#738 = CARTESIAN_POINT('',(11.058613626837,32.204888654281,
    0.274155655644));
#739 = CARTESIAN_POINT('',(11.503058071282,33.601152075886,2.383E-14));
#740 = CARTESIAN_POINT('',(11.947502515726,34.997415477481,-1.78E-15));
#741 = B_SPLINE_SURFACE_WITH_KNOTS('',8,9,(
    (#742,#743,#744,#745,#746,#747,#748,#749,#750,#751)
    ,(#752,#753,#754,#755,#756,#757,#758,#759,#760,#761)
    ,(#762,#763,#764,#765,#766,#767,#768,#769,#770,#771)
    ,(#772,#773,#774,#775,#776,#777,#778,#779,#780,#781)
    ,(#782,#783,#784,#785,#786,#787,#788,#789,#790,#791)
    ,(#792,#793,#794,#795,#796,#797,#798,#799,#800,#801)
    ,(#802,#803,#804,#805,#806,#807,#808,#809,#810,#811)
    ,(#812,#813,#814,#815,#816,#817,#818,#819,#820,#821)
    ,(#822,#823,#824,#825,#826,#827,#828,#829,#830,#831
  )),.UNSPECIFIED.,.F.,.F.,.F.,(9,9),(10,10),(0.,1.),(0.,1.),
  .PIECEWISE_BEZIER_KNOTS.);
#742 = CARTESIAN_POINT('',(3.947502515726,30.997415477481,8.));
#743 = CARTESIAN_POINT('',(3.947502515726,31.441859921926,6.603736598405
    ));
#744 = CARTESIAN_POINT('',(4.221658171371,31.886304366373,5.2074731768)
  );
#745 = CARTESIAN_POINT('',(4.769969674463,32.330748810811,3.872730294714
    ));
#746 = CARTESIAN_POINT('',(5.576330200442,32.775193255266,2.661027640951
    ));
#747 = CARTESIAN_POINT('',(6.608530156677,33.219637699698,1.628827684716
    ));
#748 = CARTESIAN_POINT('',(7.82023281044,33.664082144152,0.822467158737)
  );
#749 = CARTESIAN_POINT('',(9.154975692526,34.10852658859,0.274155655644)
  );
#750 = CARTESIAN_POINT('',(10.551239114131,34.552971033037,7.28E-15));
#751 = CARTESIAN_POINT('',(11.947502515726,34.997415477481,-1.78E-15));
#752 = CARTESIAN_POINT('',(3.947502515726,30.212017341987,8.));
#753 = CARTESIAN_POINT('',(3.903869285976,30.63261713482,6.603736598405)
  );
#754 = CARTESIAN_POINT('',(4.156231294797,31.087486384611,5.163802404796
    ));
#755 = CARTESIAN_POINT('',(4.729102646922,31.576625115324,3.765115462066
    ));
#756 = CARTESIAN_POINT('',(5.607616638522,32.098019973914,2.511353933594
    ));
#757 = CARTESIAN_POINT('',(6.71824318118,32.647644761264,1.498774064958)
  );
#758 = CARTESIAN_POINT('',(7.957799403587,33.219707385827,0.747896608958
    ));
#759 = CARTESIAN_POINT('',(9.270944326136,33.807150038914,0.249221668878
    ));
#760 = CARTESIAN_POINT('',(10.614660928219,34.40228275945,6.44E-15));
#761 = CARTESIAN_POINT('',(11.947502515726,34.997415477481,-1.82E-15));
#762 = CARTESIAN_POINT('',(4.123745655078,29.426618834079,8.));
#763 = CARTESIAN_POINT('',(4.022290702537,29.746752645507,6.603736598405
    ));
#764 = CARTESIAN_POINT('',(4.372343761529,30.051467124279,5.132608996221
    ));
#765 = CARTESIAN_POINT('',(4.993772619083,30.535071060248,3.688247724461
    ));
#766 = CARTESIAN_POINT('',(5.926922338515,31.133342495584,2.404444142625
    ));
#767 = CARTESIAN_POINT('',(7.072089661559,31.824242631386,1.405878622274
    ));
#768 = CARTESIAN_POINT('',(8.296291944455,32.575242282268,0.694631930544
    ));
#769 = CARTESIAN_POINT('',(9.541401505036,33.36603484091,0.23141167833)
  );
#770 = CARTESIAN_POINT('',(10.83674265252,34.117867849792,1.008E-14));
#771 = CARTESIAN_POINT('',(11.947502515726,34.997415477481,-1.84E-15));
#772 = CARTESIAN_POINT('',(4.476230309873,28.68736263271,8.));
#773 = CARTESIAN_POINT('',(4.368339380896,28.843294342328,6.603736598405
    ));
#774 = CARTESIAN_POINT('',(4.67624147981,29.125577337572,5.113892951076)
  );
#775 = CARTESIAN_POINT('',(5.277285289463,29.64963719312,3.642127081898)
  );
#776 = CARTESIAN_POINT('',(6.186410000957,30.366716966046,2.340298268044
    ));
#777 = CARTESIAN_POINT('',(7.300665998827,31.223405739753,1.350141356663
    ));
#778 = CARTESIAN_POINT('',(8.484833363554,32.147382471726,0.662673123496
    ));
#779 = CARTESIAN_POINT('',(9.6792704041,33.102126249686,0.220725684001)
  );
#780 = CARTESIAN_POINT('',(10.891139333484,34.026071257615,1.194E-14));
#781 = CARTESIAN_POINT('',(11.947502515726,34.997415477481,-1.86E-15));
#782 = CARTESIAN_POINT('',(4.990467402448,28.040380364223,8.));
#783 = CARTESIAN_POINT('',(4.974705466948,28.024618428718,6.603736598404
    ));
#784 = CARTESIAN_POINT('',(5.253787542267,28.30370050403,5.107654269361)
  );
#785 = CARTESIAN_POINT('',(5.818681532586,28.868594494342,3.626753534377
    ));
#786 = CARTESIAN_POINT('',(6.64981876487,29.699731726631,2.31891630985)
  );
#787 = CARTESIAN_POINT('',(7.662033943772,30.711946905526,1.331562268126
    ));
#788 = CARTESIAN_POINT('',(8.74333644927,31.79324941103,0.652020187813)
  );
#789 = CARTESIAN_POINT('',(9.841474977231,32.891387938988,0.217163685892
    ));
#790 = CARTESIAN_POINT('',(10.927415496136,33.977328457891,1.404E-14));
#791 = CARTESIAN_POINT('',(11.947502515726,34.997415477481,-1.86E-15));
#792 = CARTESIAN_POINT('',(5.637449670978,27.526143271617,8.));
#793 = CARTESIAN_POINT('',(5.793381380593,27.418252342643,6.603736598405
    ));
#794 = CARTESIAN_POINT('',(6.07566437583,27.726154441562,5.113892951076)
  );
#795 = CARTESIAN_POINT('',(6.599724231379,28.327198251214,3.642127081898
    ));
#796 = CARTESIAN_POINT('',(7.316804004297,29.236322962714,2.340298268044
    ));
#797 = CARTESIAN_POINT('',(8.173492778009,30.350578960577,1.350141356663
    ));
#798 = CARTESIAN_POINT('',(9.097469509975,31.534746325309,0.662673123496
    ));
#799 = CARTESIAN_POINT('',(10.052213287937,32.729183365853,
    0.220725684001));
#800 = CARTESIAN_POINT('',(10.976158295861,33.941052295238,1.633E-14));
#801 = CARTESIAN_POINT('',(11.947502515726,34.997415477481,-1.85E-15));
#802 = CARTESIAN_POINT('',(6.376705872309,27.173658616835,8.));
#803 = CARTESIAN_POINT('',(6.696839683739,27.072203664291,6.603736598404
    ));
#804 = CARTESIAN_POINT('',(7.001554162516,27.422256723283,5.132608996221
    ));
#805 = CARTESIAN_POINT('',(7.485158098491,28.043685580833,3.688247724461
    ));
#806 = CARTESIAN_POINT('',(8.083429533821,28.976835300271,2.404444142626
    ));
#807 = CARTESIAN_POINT('',(8.774329669631,30.122002623309,1.405878622273
    ));
#808 = CARTESIAN_POINT('',(9.525329320507,31.346204906211,0.694631930544
    ));
#809 = CARTESIAN_POINT('',(10.316121879153,32.59131446679,0.23141167833)
  );
#810 = CARTESIAN_POINT('',(11.067954888038,33.886655614275,1.875E-14));
#811 = CARTESIAN_POINT('',(11.947502515726,34.997415477481,-1.83E-15));
#812 = CARTESIAN_POINT('',(7.162104380239,26.997415477481,8.));
#813 = CARTESIAN_POINT('',(7.582704173071,26.953782247732,6.603736598405
    ));
#814 = CARTESIAN_POINT('',(8.037573422859,27.206144256553,5.163802404796
    ));
#815 = CARTESIAN_POINT('',(8.526712153576,27.779015608676,3.765115462066
    ));
#816 = CARTESIAN_POINT('',(9.048107012158,28.657529600281,2.511353933595
    ));
#817 = CARTESIAN_POINT('',(9.597731799516,29.768156142933,1.498774064958
    ));
#818 = CARTESIAN_POINT('',(10.169794424071,31.007712365343,
    0.747896608958));
#819 = CARTESIAN_POINT('',(10.757237077162,32.320857287891,
    0.249221668878));
#820 = CARTESIAN_POINT('',(11.352369797695,33.664573889974,2.334E-14));
#821 = CARTESIAN_POINT('',(11.947502515726,34.997415477481,-1.8E-15));
#822 = CARTESIAN_POINT('',(7.947502515726,26.997415477481,8.));
#823 = CARTESIAN_POINT('',(8.391946960171,26.997415477481,6.603736598405
    ));
#824 = CARTESIAN_POINT('',(8.836391404616,27.271571133127,5.2074731768)
  );
#825 = CARTESIAN_POINT('',(9.280835849058,27.819882636216,3.872730294713
    ));
#826 = CARTESIAN_POINT('',(9.725280293506,28.6262431622,2.661027640952)
  );
#827 = CARTESIAN_POINT('',(10.169724737947,29.65844311843,1.628827684715
    ));
#828 = CARTESIAN_POINT('',(10.614169182394,30.870145772196,
    0.822467158737));
#829 = CARTESIAN_POINT('',(11.058613626837,32.204888654281,
    0.274155655644));
#830 = CARTESIAN_POINT('',(11.503058071282,33.601152075886,2.383E-14));
#831 = CARTESIAN_POINT('',(11.947502515726,34.997415477481,-1.78E-15));
#832 = ADVANCED_FACE('',(#833),#851,.F.);
#833 = FACE_BOUND('',#834,.F.);
#834 = EDGE_LOOP('',(#835,#836,#837,#845));
#835 = ORIENTED_EDGE('',*,*,#355,.T.);
#836 = ORIENTED_EDGE('',*,*,#221,.T.);
#837 = ORIENTED_EDGE('',*,*,#838,.F.);
#838 = EDGE_CURVE('',#839,#222,#841,.T.);
#839 = VERTEX_POINT('',#840);
#840 = CARTESIAN_POINT('',(71.311475815507,26.997415477481,8.));
#841 = LINE('',#842,#843);
#842 = CARTESIAN_POINT('',(71.311475815507,26.997415477481,0.));
#843 = VECTOR('',#844,1.);
#844 = DIRECTION('',(0.,0.,1.));
#845 = ORIENTED_EDGE('',*,*,#846,.F.);
#846 = EDGE_CURVE('',#342,#839,#847,.T.);
#847 = LINE('',#848,#849);
#848 = CARTESIAN_POINT('',(7.947502515726,26.997415477481,8.));
#849 = VECTOR('',#850,1.);
#850 = DIRECTION('',(1.,0.,0.));
#851 = PLANE('',#852);
#852 = AXIS2_PLACEMENT_3D('',#853,#854,#855);
#853 = CARTESIAN_POINT('',(3.947502515726,26.997415477481,0.));
#854 = DIRECTION('',(0.,1.,0.));
#855 = DIRECTION('',(1.,0.,0.));
#856 = ADVANCED_FACE('',(#857),#881,.T.);
#857 = FACE_BOUND('',#858,.F.);
#858 = EDGE_LOOP('',(#859,#860,#874,#880));
#859 = ORIENTED_EDGE('',*,*,#672,.F.);
#860 = ORIENTED_EDGE('',*,*,#861,.F.);
#861 = EDGE_CURVE('',#862,#673,#864,.T.);
#862 = VERTEX_POINT('',#863);
#863 = CARTESIAN_POINT('',(75.311475815507,131.94683259077,8.));
#864 = B_SPLINE_CURVE_WITH_KNOTS('',8,(#865,#866,#867,#868,#869,#870,
    #871,#872,#873),.UNSPECIFIED.,.F.,.F.,(9,9),(0.,1.),
  .PIECEWISE_BEZIER_KNOTS.);
#865 = CARTESIAN_POINT('',(75.311475815507,131.94683259077,8.));
#866 = CARTESIAN_POINT('',(75.311475815507,132.73223072626,8.));
#867 = CARTESIAN_POINT('',(75.135232676153,133.51762923417,8.));
#868 = CARTESIAN_POINT('',(74.78274802137,134.25688543554,8.));
#869 = CARTESIAN_POINT('',(74.268510928768,134.90386770403,8.));
#870 = CARTESIAN_POINT('',(73.621528660275,135.41810479663,8.));
#871 = CARTESIAN_POINT('',(72.882272458911,135.77058945142,8.));
#872 = CARTESIAN_POINT('',(72.096873951,135.94683259077,8.));
#873 = CARTESIAN_POINT('',(71.311475815507,135.94683259077,8.));
#874 = ORIENTED_EDGE('',*,*,#875,.T.);
#875 = EDGE_CURVE('',#862,#239,#876,.T.);
#876 = LINE('',#877,#878);
#877 = CARTESIAN_POINT('',(75.311475815507,131.94683259077,0.));
#878 = VECTOR('',#879,1.);
#879 = DIRECTION('',(0.,0.,1.));
#880 = ORIENTED_EDGE('',*,*,#246,.F.);
#881 = CYLINDRICAL_SURFACE('',#882,4.);
#882 = AXIS2_PLACEMENT_3D('',#883,#884,#885);
#883 = CARTESIAN_POINT('',(71.311475815507,131.94683259077,0.));
#884 = DIRECTION('',(0.,0.,1.));
#885 = DIRECTION('',(0.,1.,0.));
#886 = ADVANCED_FACE('',(#887),#911,.T.);
#887 = FACE_BOUND('',#888,.T.);
#888 = EDGE_LOOP('',(#889,#890,#904,#910));
#889 = ORIENTED_EDGE('',*,*,#838,.F.);
#890 = ORIENTED_EDGE('',*,*,#891,.T.);
#891 = EDGE_CURVE('',#839,#892,#894,.T.);
#892 = VERTEX_POINT('',#893);
#893 = CARTESIAN_POINT('',(75.311475815507,30.997415477481,8.));
#894 = B_SPLINE_CURVE_WITH_KNOTS('',8,(#895,#896,#897,#898,#899,#900,
    #901,#902,#903),.UNSPECIFIED.,.F.,.F.,(9,9),(0.,1.),
  .PIECEWISE_BEZIER_KNOTS.);
#895 = CARTESIAN_POINT('',(71.311475815507,26.997415477481,8.));
#896 = CARTESIAN_POINT('',(72.096873951,26.997415477481,8.));
#897 = CARTESIAN_POINT('',(72.882272458911,27.173658616833,8.));
#898 = CARTESIAN_POINT('',(73.621528660274,27.526143271628,8.));
#899 = CARTESIAN_POINT('',(74.268510928768,28.040380364203,8.));
#900 = CARTESIAN_POINT('',(74.782748021369,28.687362632734,8.));
#901 = CARTESIAN_POINT('',(75.135232676153,29.426618834065,8.));
#902 = CARTESIAN_POINT('',(75.311475815507,30.212017341994,8.));
#903 = CARTESIAN_POINT('',(75.311475815507,30.997415477481,8.));
#904 = ORIENTED_EDGE('',*,*,#905,.T.);
#905 = EDGE_CURVE('',#892,#230,#906,.T.);
#906 = LINE('',#907,#908);
#907 = CARTESIAN_POINT('',(75.311475815507,30.997415477481,0.));
#908 = VECTOR('',#909,1.);
#909 = DIRECTION('',(0.,0.,1.));
#910 = ORIENTED_EDGE('',*,*,#229,.F.);
#911 = CYLINDRICAL_SURFACE('',#912,4.);
#912 = AXIS2_PLACEMENT_3D('',#913,#914,#915);
#913 = CARTESIAN_POINT('',(71.311475815507,30.997415477481,0.));
#914 = DIRECTION('',(0.,0.,1.));
#915 = DIRECTION('',(0.,-1.,0.));
#916 = ADVANCED_FACE('',(#917),#928,.F.);
#917 = FACE_BOUND('',#918,.F.);
#918 = EDGE_LOOP('',(#919,#920,#921,#922));
#919 = ORIENTED_EDGE('',*,*,#905,.T.);
#920 = ORIENTED_EDGE('',*,*,#238,.T.);
#921 = ORIENTED_EDGE('',*,*,#875,.F.);
#922 = ORIENTED_EDGE('',*,*,#923,.F.);
#923 = EDGE_CURVE('',#892,#862,#924,.T.);
#924 = LINE('',#925,#926);
#925 = CARTESIAN_POINT('',(75.311475815507,30.997415477481,8.));
#926 = VECTOR('',#927,1.);
#927 = DIRECTION('',(0.,1.,0.));
#928 = PLANE('',#929);
#929 = AXIS2_PLACEMENT_3D('',#930,#931,#932);
#930 = CARTESIAN_POINT('',(75.311475815507,26.997415477481,0.));
#931 = DIRECTION('',(-1.,0.,0.));
#932 = DIRECTION('',(0.,1.,0.));
#933 = ADVANCED_FACE('',(#934,#959),#969,.F.);
#934 = FACE_BOUND('',#935,.F.);
#935 = EDGE_LOOP('',(#936,#937,#945,#953));
#936 = ORIENTED_EDGE('',*,*,#264,.F.);
#937 = ORIENTED_EDGE('',*,*,#938,.T.);
#938 = EDGE_CURVE('',#265,#939,#941,.T.);
#939 = VERTEX_POINT('',#940);
#940 = CARTESIAN_POINT('',(6.21527,129.798,2.));
#941 = LINE('',#942,#943);
#942 = CARTESIAN_POINT('',(6.21527,129.798,22.));
#943 = VECTOR('',#944,1.);
#944 = DIRECTION('',(-0.,-0.,-1.));
#945 = ORIENTED_EDGE('',*,*,#946,.T.);
#946 = EDGE_CURVE('',#939,#947,#949,.T.);
#947 = VERTEX_POINT('',#948);
#948 = CARTESIAN_POINT('',(6.21527,33.3453,2.));
#949 = LINE('',#950,#951);
#950 = CARTESIAN_POINT('',(6.21527,133.798,2.));
#951 = VECTOR('',#952,1.);
#952 = DIRECTION('',(0.,-1.,0.));
#953 = ORIENTED_EDGE('',*,*,#954,.F.);
#954 = EDGE_CURVE('',#267,#947,#955,.T.);
#955 = LINE('',#956,#957);
#956 = CARTESIAN_POINT('',(6.21527,33.3453,22.));
#957 = VECTOR('',#958,1.);
#958 = DIRECTION('',(-0.,-0.,-1.));
#959 = FACE_BOUND('',#960,.F.);
#960 = EDGE_LOOP('',(#961,#962,#963,#964,#965,#966,#967,#968));
#961 = ORIENTED_EDGE('',*,*,#551,.F.);
#962 = ORIENTED_EDGE('',*,*,#379,.F.);
#963 = ORIENTED_EDGE('',*,*,#411,.F.);
#964 = ORIENTED_EDGE('',*,*,#435,.F.);
#965 = ORIENTED_EDGE('',*,*,#460,.F.);
#966 = ORIENTED_EDGE('',*,*,#484,.F.);
#967 = ORIENTED_EDGE('',*,*,#509,.F.);
#968 = ORIENTED_EDGE('',*,*,#533,.F.);
#969 = PLANE('',#970);
#970 = AXIS2_PLACEMENT_3D('',#971,#972,#973);
#971 = CARTESIAN_POINT('',(6.21527,133.798,22.));
#972 = DIRECTION('',(-1.,0.,0.));
#973 = DIRECTION('',(0.,-1.,0.));
#974 = ADVANCED_FACE('',(#975),#994,.F.);
#975 = FACE_BOUND('',#976,.F.);
#976 = EDGE_LOOP('',(#977,#978,#986,#993));
#977 = ORIENTED_EDGE('',*,*,#274,.T.);
#978 = ORIENTED_EDGE('',*,*,#979,.T.);
#979 = EDGE_CURVE('',#275,#980,#982,.T.);
#980 = VERTEX_POINT('',#981);
#981 = CARTESIAN_POINT('',(10.21527,133.798,2.));
#982 = LINE('',#983,#984);
#983 = CARTESIAN_POINT('',(10.21527,133.798,22.));
#984 = VECTOR('',#985,1.);
#985 = DIRECTION('',(-0.,-0.,-1.));
#986 = ORIENTED_EDGE('',*,*,#987,.F.);
#987 = EDGE_CURVE('',#939,#980,#988,.T.);
#988 = CIRCLE('',#989,4.);
#989 = AXIS2_PLACEMENT_3D('',#990,#991,#992);
#990 = CARTESIAN_POINT('',(10.21527,129.798,2.));
#991 = DIRECTION('',(0.,0.,-1.));
#992 = DIRECTION('',(0.,1.,0.));
#993 = ORIENTED_EDGE('',*,*,#938,.F.);
#994 = CYLINDRICAL_SURFACE('',#995,4.);
#995 = AXIS2_PLACEMENT_3D('',#996,#997,#998);
#996 = CARTESIAN_POINT('',(10.21527,129.798,22.));
#997 = DIRECTION('',(-0.,-0.,-1.));
#998 = DIRECTION('',(-1.,0.,0.));
#999 = ADVANCED_FACE('',(#1000),#1019,.F.);
#1000 = FACE_BOUND('',#1001,.T.);
#1001 = EDGE_LOOP('',(#1002,#1003,#1011,#1018));
#1002 = ORIENTED_EDGE('',*,*,#325,.T.);
#1003 = ORIENTED_EDGE('',*,*,#1004,.T.);
#1004 = EDGE_CURVE('',#318,#1005,#1007,.T.);
#1005 = VERTEX_POINT('',#1006);
#1006 = CARTESIAN_POINT('',(10.21527,29.3453,2.));
#1007 = LINE('',#1008,#1009);
#1008 = CARTESIAN_POINT('',(10.21527,29.3453,22.));
#1009 = VECTOR('',#1010,1.);
#1010 = DIRECTION('',(-0.,-0.,-1.));
#1011 = ORIENTED_EDGE('',*,*,#1012,.F.);
#1012 = EDGE_CURVE('',#947,#1005,#1013,.T.);
#1013 = CIRCLE('',#1014,4.);
#1014 = AXIS2_PLACEMENT_3D('',#1015,#1016,#1017);
#1015 = CARTESIAN_POINT('',(10.21527,33.3453,2.));
#1016 = DIRECTION('',(0.,-0.,1.));
#1017 = DIRECTION('',(0.,1.,0.));
#1018 = ORIENTED_EDGE('',*,*,#954,.F.);
#1019 = CYLINDRICAL_SURFACE('',#1020,4.);
#1020 = AXIS2_PLACEMENT_3D('',#1021,#1022,#1023);
#1021 = CARTESIAN_POINT('',(10.21527,33.3453,22.));
#1022 = DIRECTION('',(-0.,-0.,-1.));
#1023 = DIRECTION('',(-1.,0.,0.));
#1024 = ADVANCED_FACE('',(#1025),#1043,.F.);
#1025 = FACE_BOUND('',#1026,.F.);
#1026 = EDGE_LOOP('',(#1027,#1028,#1036,#1042));
#1027 = ORIENTED_EDGE('',*,*,#283,.F.);
#1028 = ORIENTED_EDGE('',*,*,#1029,.T.);
#1029 = EDGE_CURVE('',#284,#1030,#1032,.T.);
#1030 = VERTEX_POINT('',#1031);
#1031 = CARTESIAN_POINT('',(68.6655,133.798,2.));
#1032 = LINE('',#1033,#1034);
#1033 = CARTESIAN_POINT('',(68.6655,133.798,22.));
#1034 = VECTOR('',#1035,1.);
#1035 = DIRECTION('',(-0.,-0.,-1.));
#1036 = ORIENTED_EDGE('',*,*,#1037,.T.);
#1037 = EDGE_CURVE('',#1030,#980,#1038,.T.);
#1038 = LINE('',#1039,#1040);
#1039 = CARTESIAN_POINT('',(72.6655,133.798,2.));
#1040 = VECTOR('',#1041,1.);
#1041 = DIRECTION('',(-1.,0.,0.));
#1042 = ORIENTED_EDGE('',*,*,#979,.F.);
#1043 = PLANE('',#1044);
#1044 = AXIS2_PLACEMENT_3D('',#1045,#1046,#1047);
#1045 = CARTESIAN_POINT('',(72.6655,133.798,22.));
#1046 = DIRECTION('',(0.,1.,0.));
#1047 = DIRECTION('',(-1.,0.,0.));
#1048 = ADVANCED_FACE('',(#1049),#1067,.F.);
#1049 = FACE_BOUND('',#1050,.F.);
#1050 = EDGE_LOOP('',(#1051,#1052,#1053,#1061));
#1051 = ORIENTED_EDGE('',*,*,#317,.F.);
#1052 = ORIENTED_EDGE('',*,*,#1004,.T.);
#1053 = ORIENTED_EDGE('',*,*,#1054,.T.);
#1054 = EDGE_CURVE('',#1005,#1055,#1057,.T.);
#1055 = VERTEX_POINT('',#1056);
#1056 = CARTESIAN_POINT('',(68.6655,29.3453,2.));
#1057 = LINE('',#1058,#1059);
#1058 = CARTESIAN_POINT('',(6.21527,29.3453,2.));
#1059 = VECTOR('',#1060,1.);
#1060 = DIRECTION('',(1.,0.,0.));
#1061 = ORIENTED_EDGE('',*,*,#1062,.F.);
#1062 = EDGE_CURVE('',#309,#1055,#1063,.T.);
#1063 = LINE('',#1064,#1065);
#1064 = CARTESIAN_POINT('',(68.6655,29.3453,22.));
#1065 = VECTOR('',#1066,1.);
#1066 = DIRECTION('',(-0.,-0.,-1.));
#1067 = PLANE('',#1068);
#1068 = AXIS2_PLACEMENT_3D('',#1069,#1070,#1071);
#1069 = CARTESIAN_POINT('',(6.21527,29.3453,22.));
#1070 = DIRECTION('',(0.,-1.,0.));
#1071 = DIRECTION('',(1.,0.,0.));
#1072 = ADVANCED_FACE('',(#1073),#1092,.F.);
#1073 = FACE_BOUND('',#1074,.T.);
#1074 = EDGE_LOOP('',(#1075,#1076,#1077,#1086));
#1075 = ORIENTED_EDGE('',*,*,#291,.T.);
#1076 = ORIENTED_EDGE('',*,*,#1029,.T.);
#1077 = ORIENTED_EDGE('',*,*,#1078,.F.);
#1078 = EDGE_CURVE('',#1079,#1030,#1081,.T.);
#1079 = VERTEX_POINT('',#1080);
#1080 = CARTESIAN_POINT('',(72.6655,129.798,2.));
#1081 = CIRCLE('',#1082,4.);
#1082 = AXIS2_PLACEMENT_3D('',#1083,#1084,#1085);
#1083 = CARTESIAN_POINT('',(68.6655,129.798,2.));
#1084 = DIRECTION('',(0.,-0.,1.));
#1085 = DIRECTION('',(0.,1.,0.));
#1086 = ORIENTED_EDGE('',*,*,#1087,.F.);
#1087 = EDGE_CURVE('',#292,#1079,#1088,.T.);
#1088 = LINE('',#1089,#1090);
#1089 = CARTESIAN_POINT('',(72.6655,129.798,22.));
#1090 = VECTOR('',#1091,1.);
#1091 = DIRECTION('',(-0.,-0.,-1.));
#1092 = CYLINDRICAL_SURFACE('',#1093,4.);
#1093 = AXIS2_PLACEMENT_3D('',#1094,#1095,#1096);
#1094 = CARTESIAN_POINT('',(68.6655,129.798,22.));
#1095 = DIRECTION('',(-0.,-0.,-1.));
#1096 = DIRECTION('',(1.,0.,0.));
#1097 = ADVANCED_FACE('',(#1098),#1117,.F.);
#1098 = FACE_BOUND('',#1099,.T.);
#1099 = EDGE_LOOP('',(#1100,#1101,#1109,#1116));
#1100 = ORIENTED_EDGE('',*,*,#308,.T.);
#1101 = ORIENTED_EDGE('',*,*,#1102,.T.);
#1102 = EDGE_CURVE('',#301,#1103,#1105,.T.);
#1103 = VERTEX_POINT('',#1104);
#1104 = CARTESIAN_POINT('',(72.6655,33.3453,2.));
#1105 = LINE('',#1106,#1107);
#1106 = CARTESIAN_POINT('',(72.6655,33.3453,22.));
#1107 = VECTOR('',#1108,1.);
#1108 = DIRECTION('',(-0.,-0.,-1.));
#1109 = ORIENTED_EDGE('',*,*,#1110,.F.);
#1110 = EDGE_CURVE('',#1055,#1103,#1111,.T.);
#1111 = CIRCLE('',#1112,4.);
#1112 = AXIS2_PLACEMENT_3D('',#1113,#1114,#1115);
#1113 = CARTESIAN_POINT('',(68.6655,33.3453,2.));
#1114 = DIRECTION('',(0.,-0.,1.));
#1115 = DIRECTION('',(0.,1.,0.));
#1116 = ORIENTED_EDGE('',*,*,#1062,.F.);
#1117 = CYLINDRICAL_SURFACE('',#1118,4.);
#1118 = AXIS2_PLACEMENT_3D('',#1119,#1120,#1121);
#1119 = CARTESIAN_POINT('',(68.6655,33.3453,22.));
#1120 = DIRECTION('',(-0.,-0.,-1.));
#1121 = DIRECTION('',(0.,-1.,0.));
#1122 = ADVANCED_FACE('',(#1123),#1134,.F.);
#1123 = FACE_BOUND('',#1124,.F.);
#1124 = EDGE_LOOP('',(#1125,#1126,#1127,#1133));
#1125 = ORIENTED_EDGE('',*,*,#300,.F.);
#1126 = ORIENTED_EDGE('',*,*,#1102,.T.);
#1127 = ORIENTED_EDGE('',*,*,#1128,.T.);
#1128 = EDGE_CURVE('',#1103,#1079,#1129,.T.);
#1129 = LINE('',#1130,#1131);
#1130 = CARTESIAN_POINT('',(72.6655,29.3453,2.));
#1131 = VECTOR('',#1132,1.);
#1132 = DIRECTION('',(0.,1.,0.));
#1133 = ORIENTED_EDGE('',*,*,#1087,.F.);
#1134 = PLANE('',#1135);
#1135 = AXIS2_PLACEMENT_3D('',#1136,#1137,#1138);
#1136 = CARTESIAN_POINT('',(72.6655,29.3453,22.));
#1137 = DIRECTION('',(1.,0.,0.));
#1138 = DIRECTION('',(0.,1.,0.));
#1139 = ADVANCED_FACE('',(#1140),#1158,.T.);
#1140 = FACE_BOUND('',#1141,.T.);
#1141 = EDGE_LOOP('',(#1142,#1155,#1156,#1157));
#1142 = ORIENTED_EDGE('',*,*,#1143,.T.);
#1143 = EDGE_CURVE('',#673,#699,#1144,.T.);
#1144 = B_SPLINE_CURVE_WITH_KNOTS('',9,(#1145,#1146,#1147,#1148,#1149,
    #1150,#1151,#1152,#1153,#1154),.UNSPECIFIED.,.F.,.F.,(10,10),(0.,1.)
  ,.PIECEWISE_BEZIER_KNOTS.);
#1145 = CARTESIAN_POINT('',(71.311475815507,135.94683259077,8.));
#1146 = CARTESIAN_POINT('',(70.867031371062,135.94683259077,
    6.603736598405));
#1147 = CARTESIAN_POINT('',(70.422586926615,135.67267693513,5.2074731768
    ));
#1148 = CARTESIAN_POINT('',(69.978142482176,135.12436543203,
    3.872730294714));
#1149 = CARTESIAN_POINT('',(69.533698037722,134.31800490606,
    2.661027640951));
#1150 = CARTESIAN_POINT('',(69.089253593291,133.28580494981,
    1.628827684716));
#1151 = CARTESIAN_POINT('',(68.644809148835,132.07410229606,
    0.822467158737));
#1152 = CARTESIAN_POINT('',(68.200364704398,130.73935941397,
    0.274155655644));
#1153 = CARTESIAN_POINT('',(67.755920259951,129.34309599237,1.565E-14));
#1154 = CARTESIAN_POINT('',(67.311475815507,127.94683259077,-2.66E-15));
#1155 = ORIENTED_EDGE('',*,*,#706,.T.);
#1156 = ORIENTED_EDGE('',*,*,#566,.F.);
#1157 = ORIENTED_EDGE('',*,*,#682,.F.);
#1158 = CYLINDRICAL_SURFACE('',#1159,8.);
#1159 = AXIS2_PLACEMENT_3D('',#1160,#1161,#1162);
#1160 = CARTESIAN_POINT('',(71.311475815507,127.94683259077,8.));
#1161 = DIRECTION('',(-1.,0.,0.));
#1162 = DIRECTION('',(0.,1.,0.));
#1163 = ADVANCED_FACE('',(#1164),#1188,.T.);
#1164 = FACE_BOUND('',#1165,.T.);
#1165 = EDGE_LOOP('',(#1166,#1176,#1177,#1187));
#1166 = ORIENTED_EDGE('',*,*,#1167,.T.);
#1167 = EDGE_CURVE('',#892,#697,#1168,.T.);
#1168 = B_SPLINE_CURVE_WITH_KNOTS('',6,(#1169,#1170,#1171,#1172,#1173,
    #1174,#1175),.UNSPECIFIED.,.F.,.F.,(7,7),(0.,1.),
  .PIECEWISE_BEZIER_KNOTS.);
#1169 = CARTESIAN_POINT('',(75.311475815507,30.997415477481,8.));
#1170 = CARTESIAN_POINT('',(75.311475815507,31.664082144148,
    5.905604897607));
#1171 = CARTESIAN_POINT('',(74.653654327344,32.330748810814,
    3.811387994359));
#1172 = CARTESIAN_POINT('',(73.336997012629,32.997415477481,
    1.974478802879));
#1173 = CARTESIAN_POINT('',(71.500087821148,33.664082144148,
    0.657821488162));
#1174 = CARTESIAN_POINT('',(69.4058709179,34.330748810814,-8.4E-16));
#1175 = CARTESIAN_POINT('',(67.311475815507,34.997415477481,-1.78E-15));
#1176 = ORIENTED_EDGE('',*,*,#696,.T.);
#1177 = ORIENTED_EDGE('',*,*,#1178,.F.);
#1178 = EDGE_CURVE('',#862,#699,#1179,.T.);
#1179 = B_SPLINE_CURVE_WITH_KNOTS('',6,(#1180,#1181,#1182,#1183,#1184,
    #1185,#1186),.UNSPECIFIED.,.F.,.F.,(7,7),(0.,1.),
  .PIECEWISE_BEZIER_KNOTS.);
#1180 = CARTESIAN_POINT('',(75.311475815507,131.94683259077,8.));
#1181 = CARTESIAN_POINT('',(75.311475815507,131.2801659241,
    5.905604897607));
#1182 = CARTESIAN_POINT('',(74.653654327344,130.61349925744,
    3.811387994359));
#1183 = CARTESIAN_POINT('',(73.336997012629,129.94683259077,
    1.974478802879));
#1184 = CARTESIAN_POINT('',(71.500087821148,129.2801659241,
    0.657821488162));
#1185 = CARTESIAN_POINT('',(69.4058709179,128.61349925744,-8.4E-16));
#1186 = CARTESIAN_POINT('',(67.311475815507,127.94683259077,-1.78E-15));
#1187 = ORIENTED_EDGE('',*,*,#923,.F.);
#1188 = CYLINDRICAL_SURFACE('',#1189,8.);
#1189 = AXIS2_PLACEMENT_3D('',#1190,#1191,#1192);
#1190 = CARTESIAN_POINT('',(67.311475815507,30.997415477481,8.));
#1191 = DIRECTION('',(0.,1.,0.));
#1192 = DIRECTION('',(1.,0.,0.));
#1193 = ADVANCED_FACE('',(#1194),#1209,.T.);
#1194 = FACE_BOUND('',#1195,.T.);
#1195 = EDGE_LOOP('',(#1196,#1197,#1198,#1208));
#1196 = ORIENTED_EDGE('',*,*,#729,.T.);
#1197 = ORIENTED_EDGE('',*,*,#713,.T.);
#1198 = ORIENTED_EDGE('',*,*,#1199,.F.);
#1199 = EDGE_CURVE('',#839,#697,#1200,.T.);
#1200 = B_SPLINE_CURVE_WITH_KNOTS('',6,(#1201,#1202,#1203,#1204,#1205,
    #1206,#1207),.UNSPECIFIED.,.F.,.F.,(7,7),(0.,1.),
  .PIECEWISE_BEZIER_KNOTS.);
#1201 = CARTESIAN_POINT('',(71.311475815507,26.997415477481,8.));
#1202 = CARTESIAN_POINT('',(70.64480914884,26.997415477481,
    5.905604897607));
#1203 = CARTESIAN_POINT('',(69.978142482173,27.655236965643,
    3.811387994359));
#1204 = CARTESIAN_POINT('',(69.311475815507,28.97189428036,
    1.974478802879));
#1205 = CARTESIAN_POINT('',(68.64480914884,30.80880347184,0.657821488162
    ));
#1206 = CARTESIAN_POINT('',(67.978142482174,32.903020375088,-8.4E-16));
#1207 = CARTESIAN_POINT('',(67.311475815507,34.997415477481,-1.78E-15));
#1208 = ORIENTED_EDGE('',*,*,#846,.F.);
#1209 = CYLINDRICAL_SURFACE('',#1210,8.);
#1210 = AXIS2_PLACEMENT_3D('',#1211,#1212,#1213);
#1211 = CARTESIAN_POINT('',(7.947502515726,34.997415477481,8.));
#1212 = DIRECTION('',(1.,0.,0.));
#1213 = DIRECTION('',(0.,-1.,0.));
#1214 = ADVANCED_FACE('',(#1215),#1220,.F.);
#1215 = FACE_BOUND('',#1216,.F.);
#1216 = EDGE_LOOP('',(#1217,#1218,#1219));
#1217 = ORIENTED_EDGE('',*,*,#1178,.F.);
#1218 = ORIENTED_EDGE('',*,*,#861,.T.);
#1219 = ORIENTED_EDGE('',*,*,#1143,.T.);
#1220 = B_SPLINE_SURFACE_WITH_KNOTS('',8,9,(
    (#1221,#1222,#1223,#1224,#1225,#1226,#1227,#1228,#1229,#1230)
    ,(#1231,#1232,#1233,#1234,#1235,#1236,#1237,#1238,#1239,#1240)
    ,(#1241,#1242,#1243,#1244,#1245,#1246,#1247,#1248,#1249,#1250)
    ,(#1251,#1252,#1253,#1254,#1255,#1256,#1257,#1258,#1259,#1260)
    ,(#1261,#1262,#1263,#1264,#1265,#1266,#1267,#1268,#1269,#1270)
    ,(#1271,#1272,#1273,#1274,#1275,#1276,#1277,#1278,#1279,#1280)
    ,(#1281,#1282,#1283,#1284,#1285,#1286,#1287,#1288,#1289,#1290)
    ,(#1291,#1292,#1293,#1294,#1295,#1296,#1297,#1298,#1299,#1300)
    ,(#1301,#1302,#1303,#1304,#1305,#1306,#1307,#1308,#1309,#1310
  )),.UNSPECIFIED.,.F.,.F.,.F.,(9,9),(10,10),(0.,1.),(0.,1.),
  .PIECEWISE_BEZIER_KNOTS.);
#1221 = CARTESIAN_POINT('',(75.311475815507,131.94683259077,8.));
#1222 = CARTESIAN_POINT('',(75.311475815507,131.50238814633,
    6.603736598405));
#1223 = CARTESIAN_POINT('',(75.037320159868,131.05794370188,5.2074731768
    ));
#1224 = CARTESIAN_POINT('',(74.489008656764,130.61349925743,
    3.872730294713));
#1225 = CARTESIAN_POINT('',(73.682648130802,130.169054813,2.661027640951
    ));
#1226 = CARTESIAN_POINT('',(72.650448174547,129.72461036854,
    1.628827684715));
#1227 = CARTESIAN_POINT('',(71.4387455208,129.28016592411,0.822467158737
    ));
#1228 = CARTESIAN_POINT('',(70.104002638704,128.83572147966,
    0.274155655644));
#1229 = CARTESIAN_POINT('',(68.707739217103,128.39127703521,8.03E-15));
#1230 = CARTESIAN_POINT('',(67.311475815507,127.94683259077,-3.11E-15));
#1231 = CARTESIAN_POINT('',(75.311475815507,132.73223072626,8.));
#1232 = CARTESIAN_POINT('',(75.355109045256,132.31163093343,
    6.603736598405));
#1233 = CARTESIAN_POINT('',(75.102747036441,131.85676168365,
    5.163802404796));
#1234 = CARTESIAN_POINT('',(74.529875684305,131.36762295292,
    3.765115462066));
#1235 = CARTESIAN_POINT('',(73.651361692722,130.84622809435,
    2.511353933595));
#1236 = CARTESIAN_POINT('',(72.540735150045,130.29660330698,
    1.498774064958));
#1237 = CARTESIAN_POINT('',(71.301178927653,129.72454068243,
    0.747896608958));
#1238 = CARTESIAN_POINT('',(69.988034005094,129.13709802933,
    0.249221668878));
#1239 = CARTESIAN_POINT('',(68.644317403015,128.5419653088,7.34E-15));
#1240 = CARTESIAN_POINT('',(67.311475815507,127.94683259077,-3.11E-15));
#1241 = CARTESIAN_POINT('',(75.135232676153,133.51762923417,8.));
#1242 = CARTESIAN_POINT('',(75.236687628695,133.19749542275,
    6.603736598404));
#1243 = CARTESIAN_POINT('',(74.886634569707,132.89278094398,
    5.132608996221));
#1244 = CARTESIAN_POINT('',(74.265205712146,132.409177008,3.688247724461
    ));
#1245 = CARTESIAN_POINT('',(73.332055992725,131.81090557268,
    2.404444142625));
#1246 = CARTESIAN_POINT('',(72.186888669669,131.12000543686,
    1.405878622274));
#1247 = CARTESIAN_POINT('',(70.962686386782,130.36900578599,
    0.694631930544));
#1248 = CARTESIAN_POINT('',(69.717576826195,129.57821322734,
    0.23141167833));
#1249 = CARTESIAN_POINT('',(68.422235678714,128.82638021846,8.83E-15));
#1250 = CARTESIAN_POINT('',(67.311475815507,127.94683259077,-3.E-15));
#1251 = CARTESIAN_POINT('',(74.78274802137,134.25688543554,8.));
#1252 = CARTESIAN_POINT('',(74.890638950345,134.10095372592,
    6.603736598405));
#1253 = CARTESIAN_POINT('',(74.582736851432,133.81867073068,
    5.113892951076));
#1254 = CARTESIAN_POINT('',(73.981693041771,133.29461087512,
    3.642127081898));
#1255 = CARTESIAN_POINT('',(73.072568330285,132.57753110222,
    2.340298268044));
#1256 = CARTESIAN_POINT('',(71.958312332406,131.72084232849,
    1.350141356663));
#1257 = CARTESIAN_POINT('',(70.774144967684,130.79686559653,
    0.662673123496));
#1258 = CARTESIAN_POINT('',(69.579707927134,129.84212181856,
    0.220725684001));
#1259 = CARTESIAN_POINT('',(68.36783899775,128.91817681064,9.61E-15));
#1260 = CARTESIAN_POINT('',(67.311475815507,127.94683259077,-2.94E-15));
#1261 = CARTESIAN_POINT('',(74.268510928768,134.90386770403,8.));
#1262 = CARTESIAN_POINT('',(74.28427286427,134.91962963954,
    6.603736598405));
#1263 = CARTESIAN_POINT('',(74.00519078896,134.64054756423,
    5.107654269361));
#1264 = CARTESIAN_POINT('',(73.440296798639,134.0756535739,
    3.626753534377));
#1265 = CARTESIAN_POINT('',(72.609159566362,133.24451634163,
    2.31891630985));
#1266 = CARTESIAN_POINT('',(71.596944387455,132.23230116272,
    1.331562268126));
#1267 = CARTESIAN_POINT('',(70.515641881961,131.15099865723,
    0.652020187813));
#1268 = CARTESIAN_POINT('',(69.417503353998,130.05286012926,
    0.217163685892));
#1269 = CARTESIAN_POINT('',(68.331562835097,128.96691961036,1.058E-14));
#1270 = CARTESIAN_POINT('',(67.311475815507,127.94683259077,-2.89E-15));
#1271 = CARTESIAN_POINT('',(73.621528660275,135.41810479663,8.));
#1272 = CARTESIAN_POINT('',(73.465596950658,135.52599572561,
    6.603736598405));
#1273 = CARTESIAN_POINT('',(73.183313955418,135.21809362669,
    5.113892951076));
#1274 = CARTESIAN_POINT('',(72.659254099864,134.61704981703,
    3.642127081898));
#1275 = CARTESIAN_POINT('',(71.942174326947,133.70792510555,
    2.340298268044));
#1276 = CARTESIAN_POINT('',(71.085485553232,132.59366910767,
    1.350141356663));
#1277 = CARTESIAN_POINT('',(70.161508821264,131.40950174295,
    0.662673123496));
#1278 = CARTESIAN_POINT('',(69.206765043301,130.2150647024,
    0.220725684001));
#1279 = CARTESIAN_POINT('',(68.282820035373,129.00319577301,1.171E-14));
#1280 = CARTESIAN_POINT('',(67.311475815507,127.94683259077,-2.83E-15));
#1281 = CARTESIAN_POINT('',(72.882272458911,135.77058945142,8.));
#1282 = CARTESIAN_POINT('',(72.562138647483,135.87204440396,
    6.603736598405));
#1283 = CARTESIAN_POINT('',(72.257424168712,135.52199134497,
    5.132608996221));
#1284 = CARTESIAN_POINT('',(71.773820232738,134.90056248741,
    3.688247724461));
#1285 = CARTESIAN_POINT('',(71.175548797408,133.96741276799,
    2.404444142626));
#1286 = CARTESIAN_POINT('',(70.4846486616,132.82224544493,1.405878622274
    ));
#1287 = CARTESIAN_POINT('',(69.733649010722,131.59804316204,
    0.694631930544));
#1288 = CARTESIAN_POINT('',(68.942856452079,130.35293360146,
    0.23141167833));
#1289 = CARTESIAN_POINT('',(68.191023443196,129.05759245398,1.295E-14));
#1290 = CARTESIAN_POINT('',(67.311475815507,127.94683259077,-2.78E-15));
#1291 = CARTESIAN_POINT('',(72.096873951,135.94683259077,8.));
#1292 = CARTESIAN_POINT('',(71.676274158167,135.99046582052,
    6.603736598405));
#1293 = CARTESIAN_POINT('',(71.221404908377,135.7381038117,
    5.163802404796));
#1294 = CARTESIAN_POINT('',(70.732266177663,135.16523245957,
    3.765115462066));
#1295 = CARTESIAN_POINT('',(70.210871319074,134.28671846798,
    2.511353933595));
#1296 = CARTESIAN_POINT('',(69.661246531724,133.17609192531,
    1.498774064958));
#1297 = CARTESIAN_POINT('',(69.08918390716,131.93653570291,
    0.747896608958));
#1298 = CARTESIAN_POINT('',(68.501741254074,130.62339078036,
    0.249221668878));
#1299 = CARTESIAN_POINT('',(67.906608533538,129.27967417828,1.523E-14));
#1300 = CARTESIAN_POINT('',(67.311475815507,127.94683259077,-2.66E-15));
#1301 = CARTESIAN_POINT('',(71.311475815507,135.94683259077,8.));
#1302 = CARTESIAN_POINT('',(70.867031371062,135.94683259077,
    6.603736598405));
#1303 = CARTESIAN_POINT('',(70.422586926615,135.67267693513,5.2074731768
    ));
#1304 = CARTESIAN_POINT('',(69.978142482176,135.12436543203,
    3.872730294714));
#1305 = CARTESIAN_POINT('',(69.533698037722,134.31800490606,
    2.661027640951));
#1306 = CARTESIAN_POINT('',(69.089253593291,133.28580494981,
    1.628827684716));
#1307 = CARTESIAN_POINT('',(68.644809148835,132.07410229606,
    0.822467158737));
#1308 = CARTESIAN_POINT('',(68.200364704398,130.73935941397,
    0.274155655644));
#1309 = CARTESIAN_POINT('',(67.755920259951,129.34309599237,1.565E-14));
#1310 = CARTESIAN_POINT('',(67.311475815507,127.94683259077,-2.66E-15));
#1311 = ADVANCED_FACE('',(#1312),#1317,.F.);
#1312 = FACE_BOUND('',#1313,.F.);
#1313 = EDGE_LOOP('',(#1314,#1315,#1316));
#1314 = ORIENTED_EDGE('',*,*,#1199,.F.);
#1315 = ORIENTED_EDGE('',*,*,#891,.T.);
#1316 = ORIENTED_EDGE('',*,*,#1167,.T.);
#1317 = B_SPLINE_SURFACE_WITH_KNOTS('',8,9,(
    (#1318,#1319,#1320,#1321,#1322,#1323,#1324,#1325,#1326,#1327)
    ,(#1328,#1329,#1330,#1331,#1332,#1333,#1334,#1335,#1336,#1337)
    ,(#1338,#1339,#1340,#1341,#1342,#1343,#1344,#1345,#1346,#1347)
    ,(#1348,#1349,#1350,#1351,#1352,#1353,#1354,#1355,#1356,#1357)
    ,(#1358,#1359,#1360,#1361,#1362,#1363,#1364,#1365,#1366,#1367)
    ,(#1368,#1369,#1370,#1371,#1372,#1373,#1374,#1375,#1376,#1377)
    ,(#1378,#1379,#1380,#1381,#1382,#1383,#1384,#1385,#1386,#1387)
    ,(#1388,#1389,#1390,#1391,#1392,#1393,#1394,#1395,#1396,#1397)
    ,(#1398,#1399,#1400,#1401,#1402,#1403,#1404,#1405,#1406,#1407
  )),.UNSPECIFIED.,.F.,.F.,.F.,(9,9),(10,10),(0.,1.),(0.,1.),
  .PIECEWISE_BEZIER_KNOTS.);
#1318 = CARTESIAN_POINT('',(71.311475815507,26.997415477481,8.));
#1319 = CARTESIAN_POINT('',(70.867031371062,26.997415477481,
    6.603736598405));
#1320 = CARTESIAN_POINT('',(70.422586926619,27.271571133127,5.2074731768
    ));
#1321 = CARTESIAN_POINT('',(69.978142482172,27.819882636217,
    3.872730294713));
#1322 = CARTESIAN_POINT('',(69.53369803773,28.626243162199,
    2.661027640952));
#1323 = CARTESIAN_POINT('',(69.089253593285,29.658443118431,
    1.628827684715));
#1324 = CARTESIAN_POINT('',(68.644809148839,30.870145772195,
    0.822467158737));
#1325 = CARTESIAN_POINT('',(68.200364704396,32.204888654281,
    0.274155655644));
#1326 = CARTESIAN_POINT('',(67.755920259951,33.601152075886,1.258E-14));
#1327 = CARTESIAN_POINT('',(67.311475815507,34.997415477481,-1.33E-15));
#1328 = CARTESIAN_POINT('',(72.096873951,26.997415477481,8.));
#1329 = CARTESIAN_POINT('',(71.676274158167,26.953782247731,
    6.603736598405));
#1330 = CARTESIAN_POINT('',(71.22140490838,27.206144256553,
    5.163802404796));
#1331 = CARTESIAN_POINT('',(70.732266177659,27.779015608676,
    3.765115462066));
#1332 = CARTESIAN_POINT('',(70.210871319081,28.657529600279,
    2.511353933595));
#1333 = CARTESIAN_POINT('',(69.661246531718,29.768156142934,
    1.498774064958));
#1334 = CARTESIAN_POINT('',(69.089183907165,31.007712365342,
    0.747896608958));
#1335 = CARTESIAN_POINT('',(68.501741254073,32.320857287891,
    0.249221668878));
#1336 = CARTESIAN_POINT('',(67.906608533539,33.664573889974,1.182E-14));
#1337 = CARTESIAN_POINT('',(67.311475815507,34.997415477481,-1.29E-15));
#1338 = CARTESIAN_POINT('',(72.882272458911,27.173658616833,8.));
#1339 = CARTESIAN_POINT('',(72.562138647483,27.072203664292,
    6.603736598404));
#1340 = CARTESIAN_POINT('',(72.257424168715,27.422256723285,
    5.132608996221));
#1341 = CARTESIAN_POINT('',(71.773820232736,28.043685580836,
    3.688247724461));
#1342 = CARTESIAN_POINT('',(71.175548797414,28.976835300272,
    2.404444142626));
#1343 = CARTESIAN_POINT('',(70.484648661596,30.122002623311,
    1.405878622273));
#1344 = CARTESIAN_POINT('',(69.733649010725,31.346204906211,
    0.694631930544));
#1345 = CARTESIAN_POINT('',(68.942856452077,32.591314466791,
    0.23141167833));
#1346 = CARTESIAN_POINT('',(68.191023443196,33.886655614275,1.06E-14));
#1347 = CARTESIAN_POINT('',(67.311475815507,34.997415477481,-1.27E-15));
#1348 = CARTESIAN_POINT('',(73.621528660274,27.526143271628,8.));
#1349 = CARTESIAN_POINT('',(73.465596950656,27.418252342651,
    6.603736598405));
#1350 = CARTESIAN_POINT('',(73.183313955418,27.726154441567,
    5.113892951076));
#1351 = CARTESIAN_POINT('',(72.659254099859,28.327198251217,
    3.642127081898));
#1352 = CARTESIAN_POINT('',(71.94217432695,29.236322962716,
    2.340298268044));
#1353 = CARTESIAN_POINT('',(71.085485553227,30.35057896058,
    1.350141356663));
#1354 = CARTESIAN_POINT('',(70.161508821266,31.534746325311,
    0.662673123496));
#1355 = CARTESIAN_POINT('',(69.206765043299,32.729183365855,
    0.220725684001));
#1356 = CARTESIAN_POINT('',(68.282820035374,33.941052295239,9.91E-15));
#1357 = CARTESIAN_POINT('',(67.311475815507,34.997415477481,-1.26E-15));
#1358 = CARTESIAN_POINT('',(74.268510928768,28.040380364203,8.));
#1359 = CARTESIAN_POINT('',(74.284272864273,28.024618428703,
    6.603736598404));
#1360 = CARTESIAN_POINT('',(74.005190788965,28.303700504023,
    5.107654269361));
#1361 = CARTESIAN_POINT('',(73.440296798641,28.868594494338,
    3.626753534377));
#1362 = CARTESIAN_POINT('',(72.609159566369,29.699731726628,
    2.31891630985));
#1363 = CARTESIAN_POINT('',(71.596944387455,30.711946905524,
    1.331562268126));
#1364 = CARTESIAN_POINT('',(70.515641881965,31.793249411026,
    0.652020187813));
#1365 = CARTESIAN_POINT('',(69.417503353998,32.891387938986,
    0.217163685892));
#1366 = CARTESIAN_POINT('',(68.331562835098,33.977328457892,9.43E-15));
#1367 = CARTESIAN_POINT('',(67.311475815507,34.997415477481,-1.27E-15));
#1368 = CARTESIAN_POINT('',(74.782748021369,28.687362632734,8.));
#1369 = CARTESIAN_POINT('',(74.890638950343,28.843294342348,
    6.603736598405));
#1370 = CARTESIAN_POINT('',(74.58273685143,29.125577337587,
    5.113892951076));
#1371 = CARTESIAN_POINT('',(73.981693041767,29.649637193132,
    3.642127081898));
#1372 = CARTESIAN_POINT('',(73.072568330285,30.366716966056,
    2.340298268044));
#1373 = CARTESIAN_POINT('',(71.958312332401,31.223405739761,
    1.350141356663));
#1374 = CARTESIAN_POINT('',(70.774144967685,32.147382471732,
    0.662673123496));
#1375 = CARTESIAN_POINT('',(69.579707927132,33.102126249691,
    0.220725684001));
#1376 = CARTESIAN_POINT('',(68.36783899775,34.026071257616,9.19E-15));
#1377 = CARTESIAN_POINT('',(67.311475815507,34.997415477481,-1.28E-15));
#1378 = CARTESIAN_POINT('',(75.135232676153,29.426618834065,8.));
#1379 = CARTESIAN_POINT('',(75.236687628696,29.746752645494,
    6.603736598404));
#1380 = CARTESIAN_POINT('',(74.88663456971,30.051467124272,
    5.132608996221));
#1381 = CARTESIAN_POINT('',(74.265205712148,30.535071060243,
    3.688247724461));
#1382 = CARTESIAN_POINT('',(73.33205599273,31.13334249558,2.404444142626
    ));
#1383 = CARTESIAN_POINT('',(72.18688866967,31.824242631383,
    1.405878622273));
#1384 = CARTESIAN_POINT('',(70.962686386784,32.575242282265,
    0.694631930544));
#1385 = CARTESIAN_POINT('',(69.717576826195,33.366034840907,
    0.23141167833));
#1386 = CARTESIAN_POINT('',(68.422235678714,34.117867849793,9.19E-15));
#1387 = CARTESIAN_POINT('',(67.311475815507,34.997415477481,-1.3E-15));
#1388 = CARTESIAN_POINT('',(75.311475815507,30.212017341994,8.));
#1389 = CARTESIAN_POINT('',(75.355109045256,30.632617134826,
    6.603736598405));
#1390 = CARTESIAN_POINT('',(75.102747036441,31.087486384616,
    5.163802404796));
#1391 = CARTESIAN_POINT('',(74.529875684304,31.576625115328,
    3.765115462066));
#1392 = CARTESIAN_POINT('',(73.651361692722,32.098019973918,
    2.511353933595));
#1393 = CARTESIAN_POINT('',(72.540735150044,32.647644761267,
    1.498774064958));
#1394 = CARTESIAN_POINT('',(71.301178927653,33.219707385829,
    0.747896608958));
#1395 = CARTESIAN_POINT('',(69.988034005094,33.807150038916,
    0.249221668878));
#1396 = CARTESIAN_POINT('',(68.644317403015,34.40228275945,9.15E-15));
#1397 = CARTESIAN_POINT('',(67.311475815507,34.997415477481,-1.32E-15));
#1398 = CARTESIAN_POINT('',(75.311475815507,30.997415477481,8.));
#1399 = CARTESIAN_POINT('',(75.311475815507,31.441859921926,
    6.603736598405));
#1400 = CARTESIAN_POINT('',(75.037320159868,31.886304366373,5.2074731768
    ));
#1401 = CARTESIAN_POINT('',(74.489008656763,32.330748810811,
    3.872730294713));
#1402 = CARTESIAN_POINT('',(73.682648130803,32.775193255266,
    2.661027640951));
#1403 = CARTESIAN_POINT('',(72.650448174547,33.219637699698,
    1.628827684715));
#1404 = CARTESIAN_POINT('',(71.4387455208,33.664082144152,0.822467158737
    ));
#1405 = CARTESIAN_POINT('',(70.104002638704,34.10852658859,
    0.274155655644));
#1406 = CARTESIAN_POINT('',(68.707739217103,34.552971033037,1.002E-14));
#1407 = CARTESIAN_POINT('',(67.311475815507,34.997415477481,-1.33E-15));
#1408 = ADVANCED_FACE('',(#1409),#1419,.T.);
#1409 = FACE_BOUND('',#1410,.T.);
#1410 = EDGE_LOOP('',(#1411,#1412,#1413,#1414,#1415,#1416,#1417,#1418));
#1411 = ORIENTED_EDGE('',*,*,#946,.T.);
#1412 = ORIENTED_EDGE('',*,*,#1012,.T.);
#1413 = ORIENTED_EDGE('',*,*,#1054,.T.);
#1414 = ORIENTED_EDGE('',*,*,#1110,.T.);
#1415 = ORIENTED_EDGE('',*,*,#1128,.T.);
#1416 = ORIENTED_EDGE('',*,*,#1078,.T.);
#1417 = ORIENTED_EDGE('',*,*,#1037,.T.);
#1418 = ORIENTED_EDGE('',*,*,#987,.F.);
#1419 = PLANE('',#1420);
#1420 = AXIS2_PLACEMENT_3D('',#1421,#1422,#1423);
#1421 = CARTESIAN_POINT('',(39.440385,81.57165,2.));
#1422 = DIRECTION('',(0.,0.,1.));
#1423 = DIRECTION('',(1.,0.,0.));
#1424 = ( GEOMETRIC_REPRESENTATION_CONTEXT(3) 
GLOBAL_UNCERTAINTY_ASSIGNED_CONTEXT((#1428)) 
GLOBAL_UNIT_ASSIGNED_CONTEXT((#1425,#1426,#1427)) REPRESENTATION_CONTEXT
('Context #1','3D Context with UNIT and UNCERTAINTY') );
#1425 = ( LENGTH_UNIT() NAMED_UNIT(*) SI_UNIT(.MILLI.,.METRE.) );
#1426 = ( NAMED_UNIT(*) PLANE_ANGLE_UNIT() SI_UNIT($,.RADIAN.) );
#1427 = ( NAMED_UNIT(*) SI_UNIT($,.STERADIAN.) SOLID_ANGLE_UNIT() );
#1428 = UNCERTAINTY_MEASURE_WITH_UNIT(LENGTH_MEASURE(2.E-05),#1425,
  'distance_accuracy_value','confusion accuracy');
#1429 = PRODUCT_RELATED_PRODUCT_CATEGORY('part',$,(#7));
#1430 = MECHANICAL_DESIGN_GEOMETRIC_PRESENTATION_REPRESENTATION('',(
    #1431),#1424);
#1431 = STYLED_ITEM('color',(#1432),#15);
#1432 = PRESENTATION_STYLE_ASSIGNMENT((#1433,#1439));
#1433 = SURFACE_STYLE_USAGE(.BOTH.,#1434);
#1434 = SURFACE_SIDE_STYLE('',(#1435));
#1435 = SURFACE_STYLE_FILL_AREA(#1436);
#1436 = FILL_AREA_STYLE('',(#1437));
#1437 = FILL_AREA_STYLE_COLOUR('',#1438);
#1438 = COLOUR_RGB('',0.678431390124,0.709803936702,0.741176476869);
#1439 = CURVE_STYLE('',#1440,POSITIVE_LENGTH_MEASURE(0.1),#1441);
#1440 = DRAUGHTING_PRE_DEFINED_CURVE_FONT('continuous');
#1441 = COLOUR_RGB('',9.803921802644E-02,9.803921802644E-02,
  9.803921802644E-02);
ENDSEC;
END-ISO-10303-21;
