ISO-10303-21;
HEADER;
FILE_DESCRIPTION(('FreeCAD Model'),'2;1');
FILE_NAME('Open CASCADE Shape Model','2026-06-14T14:34:53',('Author'),(
    ''),'Open CASCADE STEP processor 7.8','FreeCAD','Unknown');
FILE_SCHEMA(('AUTOMOTIVE_DESIGN { 1 0 10303 214 1 1 1 1 }'));
ENDSEC;
DATA;
#1 = APPLICATION_PROTOCOL_DEFINITION('international standard',
  'automotive_design',2000,#2);
#2 = APPLICATION_CONTEXT(
  'core data for automotive mechanical design processes');
#3 = SHAPE_DEFINITION_REPRESENTATION(#4,#10);
#4 = PRODUCT_DEFINITION_SHAPE('','',#5);
#5 = PRODUCT_DEFINITION('design','',#6,#9);
#6 = PRODUCT_DEFINITION_FORMATION('','',#7);
#7 = PRODUCT('Top Cover','Top Cover','',(#8));
#8 = PRODUCT_CONTEXT('',#2,'mechanical');
#9 = PRODUCT_DEFINITION_CONTEXT('part definition',#2,'design');
#10 = ADVANCED_BREP_SHAPE_REPRESENTATION('',(#11,#15),#879);
#11 = AXIS2_PLACEMENT_3D('',#12,#13,#14);
#12 = CARTESIAN_POINT('',(0.,0.,0.));
#13 = DIRECTION('',(0.,0.,1.));
#14 = DIRECTION('',(1.,0.,-0.));
#15 = MANIFOLD_SOLID_BREP('',#16);
#16 = CLOSED_SHELL('',(#17,#57,#90,#123,#282,#307,#333,#357,#516,#534,
    #558,#583,#608,#625,#642,#659,#676,#693,#710,#727,#749,#766,#783,
    #795,#813,#831,#849,#867));
#17 = ADVANCED_FACE('',(#18),#52,.F.);
#18 = FACE_BOUND('',#19,.F.);
#19 = EDGE_LOOP('',(#20,#30,#38,#46));
#20 = ORIENTED_EDGE('',*,*,#21,.T.);
#21 = EDGE_CURVE('',#22,#24,#26,.T.);
#22 = VERTEX_POINT('',#23);
#23 = CARTESIAN_POINT('',(186.020457,129.807573,0.));
#24 = VERTEX_POINT('',#25);
#25 = CARTESIAN_POINT('',(186.020457,129.807573,1.));
#26 = LINE('',#27,#28);
#27 = CARTESIAN_POINT('',(186.020457,129.807573,0.));
#28 = VECTOR('',#29,1.);
#29 = DIRECTION('',(0.,0.,1.));
#30 = ORIENTED_EDGE('',*,*,#31,.T.);
#31 = EDGE_CURVE('',#24,#32,#34,.T.);
#32 = VERTEX_POINT('',#33);
#33 = CARTESIAN_POINT('',(186.020457,28.858156,1.));
#34 = LINE('',#35,#36);
#35 = CARTESIAN_POINT('',(186.020457,129.807573,1.));
#36 = VECTOR('',#37,1.);
#37 = DIRECTION('',(0.,-1.,0.));
#38 = ORIENTED_EDGE('',*,*,#39,.F.);
#39 = EDGE_CURVE('',#40,#32,#42,.T.);
#40 = VERTEX_POINT('',#41);
#41 = CARTESIAN_POINT('',(186.020457,28.858156,0.));
#42 = LINE('',#43,#44);
#43 = CARTESIAN_POINT('',(186.020457,28.858156,0.));
#44 = VECTOR('',#45,1.);
#45 = DIRECTION('',(0.,0.,1.));
#46 = ORIENTED_EDGE('',*,*,#47,.F.);
#47 = EDGE_CURVE('',#22,#40,#48,.T.);
#48 = LINE('',#49,#50);
#49 = CARTESIAN_POINT('',(186.020457,133.807573,0.));
#50 = VECTOR('',#51,1.);
#51 = DIRECTION('',(0.,-1.,0.));
#52 = PLANE('',#53);
#53 = AXIS2_PLACEMENT_3D('',#54,#55,#56);
#54 = CARTESIAN_POINT('',(186.020457,133.807573,0.));
#55 = DIRECTION('',(1.,0.,0.));
#56 = DIRECTION('',(0.,-1.,0.));
#57 = ADVANCED_FACE('',(#58),#85,.T.);
#58 = FACE_BOUND('',#59,.F.);
#59 = EDGE_LOOP('',(#60,#61,#70,#78));
#60 = ORIENTED_EDGE('',*,*,#21,.F.);
#61 = ORIENTED_EDGE('',*,*,#62,.T.);
#62 = EDGE_CURVE('',#22,#63,#65,.T.);
#63 = VERTEX_POINT('',#64);
#64 = CARTESIAN_POINT('',(190.020457,133.807573,0.));
#65 = CIRCLE('',#66,4.);
#66 = AXIS2_PLACEMENT_3D('',#67,#68,#69);
#67 = CARTESIAN_POINT('',(190.020457,129.807573,0.));
#68 = DIRECTION('',(-0.,-0.,-1.));
#69 = DIRECTION('',(0.,-1.,0.));
#70 = ORIENTED_EDGE('',*,*,#71,.T.);
#71 = EDGE_CURVE('',#63,#72,#74,.T.);
#72 = VERTEX_POINT('',#73);
#73 = CARTESIAN_POINT('',(190.020457,133.807573,1.));
#74 = LINE('',#75,#76);
#75 = CARTESIAN_POINT('',(190.020457,133.807573,0.));
#76 = VECTOR('',#77,1.);
#77 = DIRECTION('',(0.,0.,1.));
#78 = ORIENTED_EDGE('',*,*,#79,.T.);
#79 = EDGE_CURVE('',#72,#24,#80,.T.);
#80 = CIRCLE('',#81,4.);
#81 = AXIS2_PLACEMENT_3D('',#82,#83,#84);
#82 = CARTESIAN_POINT('',(190.020457,129.807573,1.));
#83 = DIRECTION('',(0.,-0.,1.));
#84 = DIRECTION('',(0.,1.,0.));
#85 = CYLINDRICAL_SURFACE('',#86,4.);
#86 = AXIS2_PLACEMENT_3D('',#87,#88,#89);
#87 = CARTESIAN_POINT('',(190.020457,129.807573,0.));
#88 = DIRECTION('',(0.,0.,1.));
#89 = DIRECTION('',(-1.,0.,0.));
#90 = ADVANCED_FACE('',(#91),#118,.T.);
#91 = FACE_BOUND('',#92,.T.);
#92 = EDGE_LOOP('',(#93,#102,#103,#112));
#93 = ORIENTED_EDGE('',*,*,#94,.T.);
#94 = EDGE_CURVE('',#95,#24,#97,.T.);
#95 = VERTEX_POINT('',#96);
#96 = CARTESIAN_POINT('',(188.020457,129.807573,3.));
#97 = CIRCLE('',#98,2.);
#98 = AXIS2_PLACEMENT_3D('',#99,#100,#101);
#99 = CARTESIAN_POINT('',(188.020457,129.807573,1.));
#100 = DIRECTION('',(-6.E-17,-1.,-0.));
#101 = DIRECTION('',(-1.,6.E-17,0.));
#102 = ORIENTED_EDGE('',*,*,#31,.T.);
#103 = ORIENTED_EDGE('',*,*,#104,.F.);
#104 = EDGE_CURVE('',#105,#32,#107,.T.);
#105 = VERTEX_POINT('',#106);
#106 = CARTESIAN_POINT('',(188.020457,28.858156,3.));
#107 = CIRCLE('',#108,2.);
#108 = AXIS2_PLACEMENT_3D('',#109,#110,#111);
#109 = CARTESIAN_POINT('',(188.020457,28.858156,1.));
#110 = DIRECTION('',(0.,-1.,0.));
#111 = DIRECTION('',(0.,0.,1.));
#112 = ORIENTED_EDGE('',*,*,#113,.F.);
#113 = EDGE_CURVE('',#95,#105,#114,.T.);
#114 = LINE('',#115,#116);
#115 = CARTESIAN_POINT('',(188.020457,129.807573,3.));
#116 = VECTOR('',#117,1.);
#117 = DIRECTION('',(0.,-1.,0.));
#118 = CYLINDRICAL_SURFACE('',#119,2.);
#119 = AXIS2_PLACEMENT_3D('',#120,#121,#122);
#120 = CARTESIAN_POINT('',(188.020457,129.807573,1.));
#121 = DIRECTION('',(0.,-1.,0.));
#122 = DIRECTION('',(0.,0.,1.));
#123 = ADVANCED_FACE('',(#124,#177,#188,#199,#210,#221,#232,#243),#277,
  .F.);
#124 = FACE_BOUND('',#125,.F.);
#125 = EDGE_LOOP('',(#126,#127,#136,#144,#153,#161,#170,#176));
#126 = ORIENTED_EDGE('',*,*,#47,.T.);
#127 = ORIENTED_EDGE('',*,*,#128,.T.);
#128 = EDGE_CURVE('',#40,#129,#131,.T.);
#129 = VERTEX_POINT('',#130);
#130 = CARTESIAN_POINT('',(190.020457,24.858156,0.));
#131 = CIRCLE('',#132,4.);
#132 = AXIS2_PLACEMENT_3D('',#133,#134,#135);
#133 = CARTESIAN_POINT('',(190.020457,28.858156,0.));
#134 = DIRECTION('',(-0.,0.,1.));
#135 = DIRECTION('',(0.,-1.,0.));
#136 = ORIENTED_EDGE('',*,*,#137,.T.);
#137 = EDGE_CURVE('',#129,#138,#140,.T.);
#138 = VERTEX_POINT('',#139);
#139 = CARTESIAN_POINT('',(253.38443,24.858156,0.));
#140 = LINE('',#141,#142);
#141 = CARTESIAN_POINT('',(186.020457,24.858156,0.));
#142 = VECTOR('',#143,1.);
#143 = DIRECTION('',(1.,0.,0.));
#144 = ORIENTED_EDGE('',*,*,#145,.T.);
#145 = EDGE_CURVE('',#138,#146,#148,.T.);
#146 = VERTEX_POINT('',#147);
#147 = CARTESIAN_POINT('',(257.38443,28.858156,0.));
#148 = CIRCLE('',#149,4.);
#149 = AXIS2_PLACEMENT_3D('',#150,#151,#152);
#150 = CARTESIAN_POINT('',(253.38443,28.858156,0.));
#151 = DIRECTION('',(-0.,0.,1.));
#152 = DIRECTION('',(0.,-1.,0.));
#153 = ORIENTED_EDGE('',*,*,#154,.T.);
#154 = EDGE_CURVE('',#146,#155,#157,.T.);
#155 = VERTEX_POINT('',#156);
#156 = CARTESIAN_POINT('',(257.38443,129.807573,0.));
#157 = LINE('',#158,#159);
#158 = CARTESIAN_POINT('',(257.38443,24.858156,0.));
#159 = VECTOR('',#160,1.);
#160 = DIRECTION('',(0.,1.,0.));
#161 = ORIENTED_EDGE('',*,*,#162,.T.);
#162 = EDGE_CURVE('',#155,#163,#165,.T.);
#163 = VERTEX_POINT('',#164);
#164 = CARTESIAN_POINT('',(253.38443,133.807573,0.));
#165 = CIRCLE('',#166,4.);
#166 = AXIS2_PLACEMENT_3D('',#167,#168,#169);
#167 = CARTESIAN_POINT('',(253.38443,129.807573,0.));
#168 = DIRECTION('',(-0.,0.,1.));
#169 = DIRECTION('',(0.,-1.,0.));
#170 = ORIENTED_EDGE('',*,*,#171,.T.);
#171 = EDGE_CURVE('',#163,#63,#172,.T.);
#172 = LINE('',#173,#174);
#173 = CARTESIAN_POINT('',(257.38443,133.807573,0.));
#174 = VECTOR('',#175,1.);
#175 = DIRECTION('',(-1.,0.,0.));
#176 = ORIENTED_EDGE('',*,*,#62,.F.);
#177 = FACE_BOUND('',#178,.F.);
#178 = EDGE_LOOP('',(#179));
#179 = ORIENTED_EDGE('',*,*,#180,.F.);
#180 = EDGE_CURVE('',#181,#181,#183,.T.);
#181 = VERTEX_POINT('',#182);
#182 = CARTESIAN_POINT('',(214.71216394002,42.679523999997,0.));
#183 = CIRCLE('',#184,3.514839000021);
#184 = AXIS2_PLACEMENT_3D('',#185,#186,#187);
#185 = CARTESIAN_POINT('',(211.19732494,42.679523999997,0.));
#186 = DIRECTION('',(0.,0.,1.));
#187 = DIRECTION('',(1.,0.,0.));
#188 = FACE_BOUND('',#189,.F.);
#189 = EDGE_LOOP('',(#190));
#190 = ORIENTED_EDGE('',*,*,#191,.F.);
#191 = EDGE_CURVE('',#192,#192,#194,.T.);
#192 = VERTEX_POINT('',#193);
#193 = CARTESIAN_POINT('',(224.543459,34.82437,0.));
#194 = CIRCLE('',#195,3.514839);
#195 = AXIS2_PLACEMENT_3D('',#196,#197,#198);
#196 = CARTESIAN_POINT('',(221.02862,34.82437,0.));
#197 = DIRECTION('',(0.,0.,1.));
#198 = DIRECTION('',(1.,0.,0.));
#199 = FACE_BOUND('',#200,.F.);
#200 = EDGE_LOOP('',(#201));
#201 = ORIENTED_EDGE('',*,*,#202,.F.);
#202 = EDGE_CURVE('',#203,#203,#205,.T.);
#203 = VERTEX_POINT('',#204);
#204 = CARTESIAN_POINT('',(224.511459,43.19286,0.));
#205 = CIRCLE('',#206,3.514839);
#206 = AXIS2_PLACEMENT_3D('',#207,#208,#209);
#207 = CARTESIAN_POINT('',(220.99662,43.19286,0.));
#208 = DIRECTION('',(0.,0.,1.));
#209 = DIRECTION('',(1.,0.,0.));
#210 = FACE_BOUND('',#211,.F.);
#211 = EDGE_LOOP('',(#212));
#212 = ORIENTED_EDGE('',*,*,#213,.F.);
#213 = EDGE_CURVE('',#214,#214,#216,.T.);
#214 = VERTEX_POINT('',#215);
#215 = CARTESIAN_POINT('',(224.489144,51.321,0.));
#216 = CIRCLE('',#217,3.514839);
#217 = AXIS2_PLACEMENT_3D('',#218,#219,#220);
#218 = CARTESIAN_POINT('',(220.974305,51.321,0.));
#219 = DIRECTION('',(0.,0.,1.));
#220 = DIRECTION('',(1.,0.,0.));
#221 = FACE_BOUND('',#222,.F.);
#222 = EDGE_LOOP('',(#223));
#223 = ORIENTED_EDGE('',*,*,#224,.F.);
#224 = EDGE_CURVE('',#225,#225,#227,.T.);
#225 = VERTEX_POINT('',#226);
#226 = CARTESIAN_POINT('',(234.149626,43.593018,0.));
#227 = CIRCLE('',#228,3.514839);
#228 = AXIS2_PLACEMENT_3D('',#229,#230,#231);
#229 = CARTESIAN_POINT('',(230.634787,43.593018,0.));
#230 = DIRECTION('',(0.,0.,1.));
#231 = DIRECTION('',(1.,0.,0.));
#232 = FACE_BOUND('',#233,.F.);
#233 = EDGE_LOOP('',(#234));
#234 = ORIENTED_EDGE('',*,*,#235,.F.);
#235 = EDGE_CURVE('',#236,#236,#238,.T.);
#236 = VERTEX_POINT('',#237);
#237 = CARTESIAN_POINT('',(248.65852600006,35.030408000001,0.));
#238 = CIRCLE('',#239,3.514839000064);
#239 = AXIS2_PLACEMENT_3D('',#240,#241,#242);
#240 = CARTESIAN_POINT('',(245.143687,35.030408000001,0.));
#241 = DIRECTION('',(0.,0.,1.));
#242 = DIRECTION('',(1.,0.,0.));
#243 = FACE_BOUND('',#244,.F.);
#244 = EDGE_LOOP('',(#245,#255,#263,#271));
#245 = ORIENTED_EDGE('',*,*,#246,.F.);
#246 = EDGE_CURVE('',#247,#249,#251,.T.);
#247 = VERTEX_POINT('',#248);
#248 = CARTESIAN_POINT('',(193.60081990969,126.69315614651,0.));
#249 = VERTEX_POINT('',#250);
#250 = CARTESIAN_POINT('',(193.60081990969,84.693156146513,0.));
#251 = LINE('',#252,#253);
#252 = CARTESIAN_POINT('',(193.60081990969,103.01301032325,0.));
#253 = VECTOR('',#254,1.);
#254 = DIRECTION('',(0.,-1.,0.));
#255 = ORIENTED_EDGE('',*,*,#256,.F.);
#256 = EDGE_CURVE('',#257,#247,#259,.T.);
#257 = VERTEX_POINT('',#258);
#258 = CARTESIAN_POINT('',(249.60081990969,126.69315614651,0.));
#259 = LINE('',#260,#261);
#260 = CARTESIAN_POINT('',(235.65163170484,126.69315614651,0.));
#261 = VECTOR('',#262,1.);
#262 = DIRECTION('',(-1.,0.,0.));
#263 = ORIENTED_EDGE('',*,*,#264,.F.);
#264 = EDGE_CURVE('',#265,#257,#267,.T.);
#265 = VERTEX_POINT('',#266);
#266 = CARTESIAN_POINT('',(249.60081990969,84.693156146513,0.));
#267 = LINE('',#268,#269);
#268 = CARTESIAN_POINT('',(249.60081990969,82.013010323257,0.));
#269 = VECTOR('',#270,1.);
#270 = DIRECTION('',(0.,1.,0.));
#271 = ORIENTED_EDGE('',*,*,#272,.F.);
#272 = EDGE_CURVE('',#249,#265,#273,.T.);
#273 = LINE('',#274,#275);
#274 = CARTESIAN_POINT('',(207.65163170484,84.693156146513,0.));
#275 = VECTOR('',#276,1.);
#276 = DIRECTION('',(1.,0.,0.));
#277 = PLANE('',#278);
#278 = AXIS2_PLACEMENT_3D('',#279,#280,#281);
#279 = CARTESIAN_POINT('',(221.7024435,79.3328645,0.));
#280 = DIRECTION('',(0.,0.,1.));
#281 = DIRECTION('',(1.,0.,0.));
#282 = ADVANCED_FACE('',(#283),#302,.T.);
#283 = FACE_BOUND('',#284,.T.);
#284 = EDGE_LOOP('',(#285,#286,#287,#295));
#285 = ORIENTED_EDGE('',*,*,#39,.F.);
#286 = ORIENTED_EDGE('',*,*,#128,.T.);
#287 = ORIENTED_EDGE('',*,*,#288,.T.);
#288 = EDGE_CURVE('',#129,#289,#291,.T.);
#289 = VERTEX_POINT('',#290);
#290 = CARTESIAN_POINT('',(190.020457,24.858156,1.));
#291 = LINE('',#292,#293);
#292 = CARTESIAN_POINT('',(190.020457,24.858156,0.));
#293 = VECTOR('',#294,1.);
#294 = DIRECTION('',(0.,0.,1.));
#295 = ORIENTED_EDGE('',*,*,#296,.F.);
#296 = EDGE_CURVE('',#32,#289,#297,.T.);
#297 = CIRCLE('',#298,4.);
#298 = AXIS2_PLACEMENT_3D('',#299,#300,#301);
#299 = CARTESIAN_POINT('',(190.020457,28.858156,1.));
#300 = DIRECTION('',(0.,0.,1.));
#301 = DIRECTION('',(-1.,-1.78E-15,0.));
#302 = CYLINDRICAL_SURFACE('',#303,4.);
#303 = AXIS2_PLACEMENT_3D('',#304,#305,#306);
#304 = CARTESIAN_POINT('',(190.020457,28.858156,0.));
#305 = DIRECTION('',(0.,0.,1.));
#306 = DIRECTION('',(-1.,0.,0.));
#307 = ADVANCED_FACE('',(#308),#328,.T.);
#308 = FACE_BOUND('',#309,.F.);
#309 = EDGE_LOOP('',(#310,#319,#326,#327));
#310 = ORIENTED_EDGE('',*,*,#311,.F.);
#311 = EDGE_CURVE('',#312,#72,#314,.T.);
#312 = VERTEX_POINT('',#313);
#313 = CARTESIAN_POINT('',(190.020457,131.807573,3.));
#314 = CIRCLE('',#315,2.);
#315 = AXIS2_PLACEMENT_3D('',#316,#317,#318);
#316 = CARTESIAN_POINT('',(190.020457,131.807573,1.));
#317 = DIRECTION('',(-1.,0.,0.));
#318 = DIRECTION('',(0.,0.,1.));
#319 = ORIENTED_EDGE('',*,*,#320,.T.);
#320 = EDGE_CURVE('',#312,#95,#321,.T.);
#321 = CIRCLE('',#322,2.);
#322 = AXIS2_PLACEMENT_3D('',#323,#324,#325);
#323 = CARTESIAN_POINT('',(190.020457,129.807573,3.));
#324 = DIRECTION('',(0.,-0.,1.));
#325 = DIRECTION('',(0.,1.,0.));
#326 = ORIENTED_EDGE('',*,*,#94,.T.);
#327 = ORIENTED_EDGE('',*,*,#79,.F.);
#328 = TOROIDAL_SURFACE('',#329,2.,2.);
#329 = AXIS2_PLACEMENT_3D('',#330,#331,#332);
#330 = CARTESIAN_POINT('',(190.020457,129.807573,1.));
#331 = DIRECTION('',(-0.,-0.,-1.));
#332 = DIRECTION('',(0.,1.,-0.));
#333 = ADVANCED_FACE('',(#334),#352,.F.);
#334 = FACE_BOUND('',#335,.F.);
#335 = EDGE_LOOP('',(#336,#344,#350,#351));
#336 = ORIENTED_EDGE('',*,*,#337,.T.);
#337 = EDGE_CURVE('',#163,#338,#340,.T.);
#338 = VERTEX_POINT('',#339);
#339 = CARTESIAN_POINT('',(253.38443,133.807573,1.));
#340 = LINE('',#341,#342);
#341 = CARTESIAN_POINT('',(253.38443,133.807573,0.));
#342 = VECTOR('',#343,1.);
#343 = DIRECTION('',(0.,0.,1.));
#344 = ORIENTED_EDGE('',*,*,#345,.T.);
#345 = EDGE_CURVE('',#338,#72,#346,.T.);
#346 = LINE('',#347,#348);
#347 = CARTESIAN_POINT('',(253.38443,133.807573,1.));
#348 = VECTOR('',#349,1.);
#349 = DIRECTION('',(-1.,0.,0.));
#350 = ORIENTED_EDGE('',*,*,#71,.F.);
#351 = ORIENTED_EDGE('',*,*,#171,.F.);
#352 = PLANE('',#353);
#353 = AXIS2_PLACEMENT_3D('',#354,#355,#356);
#354 = CARTESIAN_POINT('',(257.38443,133.807573,0.));
#355 = DIRECTION('',(0.,-1.,0.));
#356 = DIRECTION('',(-1.,0.,0.));
#357 = ADVANCED_FACE('',(#358,#411,#422,#433,#444,#455,#466,#477),#511,
  .T.);
#358 = FACE_BOUND('',#359,.T.);
#359 = EDGE_LOOP('',(#360,#370,#379,#387,#396,#402,#403,#404));
#360 = ORIENTED_EDGE('',*,*,#361,.T.);
#361 = EDGE_CURVE('',#362,#364,#366,.T.);
#362 = VERTEX_POINT('',#363);
#363 = CARTESIAN_POINT('',(190.020457,26.858156,3.));
#364 = VERTEX_POINT('',#365);
#365 = CARTESIAN_POINT('',(253.38443,26.858156,3.));
#366 = LINE('',#367,#368);
#367 = CARTESIAN_POINT('',(190.020457,26.858156,3.));
#368 = VECTOR('',#369,1.);
#369 = DIRECTION('',(1.,0.,0.));
#370 = ORIENTED_EDGE('',*,*,#371,.T.);
#371 = EDGE_CURVE('',#364,#372,#374,.T.);
#372 = VERTEX_POINT('',#373);
#373 = CARTESIAN_POINT('',(255.38443,28.858156,3.));
#374 = CIRCLE('',#375,2.);
#375 = AXIS2_PLACEMENT_3D('',#376,#377,#378);
#376 = CARTESIAN_POINT('',(253.38443,28.858156,3.));
#377 = DIRECTION('',(-0.,0.,1.));
#378 = DIRECTION('',(0.,-1.,0.));
#379 = ORIENTED_EDGE('',*,*,#380,.T.);
#380 = EDGE_CURVE('',#372,#381,#383,.T.);
#381 = VERTEX_POINT('',#382);
#382 = CARTESIAN_POINT('',(255.38443,129.807573,3.));
#383 = LINE('',#384,#385);
#384 = CARTESIAN_POINT('',(255.38443,28.858156,3.));
#385 = VECTOR('',#386,1.);
#386 = DIRECTION('',(0.,1.,0.));
#387 = ORIENTED_EDGE('',*,*,#388,.T.);
#388 = EDGE_CURVE('',#381,#389,#391,.T.);
#389 = VERTEX_POINT('',#390);
#390 = CARTESIAN_POINT('',(253.38443,131.807573,3.));
#391 = CIRCLE('',#392,2.);
#392 = AXIS2_PLACEMENT_3D('',#393,#394,#395);
#393 = CARTESIAN_POINT('',(253.38443,129.807573,3.));
#394 = DIRECTION('',(0.,0.,1.));
#395 = DIRECTION('',(1.,0.,-0.));
#396 = ORIENTED_EDGE('',*,*,#397,.T.);
#397 = EDGE_CURVE('',#389,#312,#398,.T.);
#398 = LINE('',#399,#400);
#399 = CARTESIAN_POINT('',(253.38443,131.807573,3.));
#400 = VECTOR('',#401,1.);
#401 = DIRECTION('',(-1.,0.,0.));
#402 = ORIENTED_EDGE('',*,*,#320,.T.);
#403 = ORIENTED_EDGE('',*,*,#113,.T.);
#404 = ORIENTED_EDGE('',*,*,#405,.T.);
#405 = EDGE_CURVE('',#105,#362,#406,.T.);
#406 = CIRCLE('',#407,2.);
#407 = AXIS2_PLACEMENT_3D('',#408,#409,#410);
#408 = CARTESIAN_POINT('',(190.020457,28.858156,3.));
#409 = DIRECTION('',(0.,0.,1.));
#410 = DIRECTION('',(-1.,-1.78E-15,0.));
#411 = FACE_BOUND('',#412,.T.);
#412 = EDGE_LOOP('',(#413));
#413 = ORIENTED_EDGE('',*,*,#414,.F.);
#414 = EDGE_CURVE('',#415,#415,#417,.T.);
#415 = VERTEX_POINT('',#416);
#416 = CARTESIAN_POINT('',(214.71216394002,42.679523999997,3.));
#417 = CIRCLE('',#418,3.514839000021);
#418 = AXIS2_PLACEMENT_3D('',#419,#420,#421);
#419 = CARTESIAN_POINT('',(211.19732494,42.679523999997,3.));
#420 = DIRECTION('',(0.,0.,1.));
#421 = DIRECTION('',(1.,0.,0.));
#422 = FACE_BOUND('',#423,.T.);
#423 = EDGE_LOOP('',(#424));
#424 = ORIENTED_EDGE('',*,*,#425,.F.);
#425 = EDGE_CURVE('',#426,#426,#428,.T.);
#426 = VERTEX_POINT('',#427);
#427 = CARTESIAN_POINT('',(224.543459,34.82437,3.));
#428 = CIRCLE('',#429,3.514839);
#429 = AXIS2_PLACEMENT_3D('',#430,#431,#432);
#430 = CARTESIAN_POINT('',(221.02862,34.82437,3.));
#431 = DIRECTION('',(0.,0.,1.));
#432 = DIRECTION('',(1.,0.,0.));
#433 = FACE_BOUND('',#434,.T.);
#434 = EDGE_LOOP('',(#435));
#435 = ORIENTED_EDGE('',*,*,#436,.F.);
#436 = EDGE_CURVE('',#437,#437,#439,.T.);
#437 = VERTEX_POINT('',#438);
#438 = CARTESIAN_POINT('',(224.511459,43.19286,3.));
#439 = CIRCLE('',#440,3.514839);
#440 = AXIS2_PLACEMENT_3D('',#441,#442,#443);
#441 = CARTESIAN_POINT('',(220.99662,43.19286,3.));
#442 = DIRECTION('',(0.,0.,1.));
#443 = DIRECTION('',(1.,0.,0.));
#444 = FACE_BOUND('',#445,.T.);
#445 = EDGE_LOOP('',(#446));
#446 = ORIENTED_EDGE('',*,*,#447,.F.);
#447 = EDGE_CURVE('',#448,#448,#450,.T.);
#448 = VERTEX_POINT('',#449);
#449 = CARTESIAN_POINT('',(224.489144,51.321,3.));
#450 = CIRCLE('',#451,3.514839);
#451 = AXIS2_PLACEMENT_3D('',#452,#453,#454);
#452 = CARTESIAN_POINT('',(220.974305,51.321,3.));
#453 = DIRECTION('',(0.,0.,1.));
#454 = DIRECTION('',(1.,0.,0.));
#455 = FACE_BOUND('',#456,.T.);
#456 = EDGE_LOOP('',(#457));
#457 = ORIENTED_EDGE('',*,*,#458,.F.);
#458 = EDGE_CURVE('',#459,#459,#461,.T.);
#459 = VERTEX_POINT('',#460);
#460 = CARTESIAN_POINT('',(234.149626,43.593018,3.));
#461 = CIRCLE('',#462,3.514839);
#462 = AXIS2_PLACEMENT_3D('',#463,#464,#465);
#463 = CARTESIAN_POINT('',(230.634787,43.593018,3.));
#464 = DIRECTION('',(0.,0.,1.));
#465 = DIRECTION('',(1.,0.,0.));
#466 = FACE_BOUND('',#467,.T.);
#467 = EDGE_LOOP('',(#468));
#468 = ORIENTED_EDGE('',*,*,#469,.F.);
#469 = EDGE_CURVE('',#470,#470,#472,.T.);
#470 = VERTEX_POINT('',#471);
#471 = CARTESIAN_POINT('',(248.65852600006,35.030408000001,3.));
#472 = CIRCLE('',#473,3.514839000064);
#473 = AXIS2_PLACEMENT_3D('',#474,#475,#476);
#474 = CARTESIAN_POINT('',(245.143687,35.030408000001,3.));
#475 = DIRECTION('',(0.,0.,1.));
#476 = DIRECTION('',(1.,0.,0.));
#477 = FACE_BOUND('',#478,.T.);
#478 = EDGE_LOOP('',(#479,#489,#497,#505));
#479 = ORIENTED_EDGE('',*,*,#480,.F.);
#480 = EDGE_CURVE('',#481,#483,#485,.T.);
#481 = VERTEX_POINT('',#482);
#482 = CARTESIAN_POINT('',(193.60081990969,126.69315614651,3.));
#483 = VERTEX_POINT('',#484);
#484 = CARTESIAN_POINT('',(193.60081990969,84.693156146513,3.));
#485 = LINE('',#486,#487);
#486 = CARTESIAN_POINT('',(193.60081990969,126.69315614651,3.));
#487 = VECTOR('',#488,1.);
#488 = DIRECTION('',(0.,-1.,0.));
#489 = ORIENTED_EDGE('',*,*,#490,.F.);
#490 = EDGE_CURVE('',#491,#481,#493,.T.);
#491 = VERTEX_POINT('',#492);
#492 = CARTESIAN_POINT('',(249.60081990969,126.69315614651,3.));
#493 = LINE('',#494,#495);
#494 = CARTESIAN_POINT('',(249.60081990969,126.69315614651,3.));
#495 = VECTOR('',#496,1.);
#496 = DIRECTION('',(-1.,0.,0.));
#497 = ORIENTED_EDGE('',*,*,#498,.F.);
#498 = EDGE_CURVE('',#499,#491,#501,.T.);
#499 = VERTEX_POINT('',#500);
#500 = CARTESIAN_POINT('',(249.60081990969,84.693156146513,3.));
#501 = LINE('',#502,#503);
#502 = CARTESIAN_POINT('',(249.60081990969,84.693156146513,3.));
#503 = VECTOR('',#504,1.);
#504 = DIRECTION('',(0.,1.,0.));
#505 = ORIENTED_EDGE('',*,*,#506,.F.);
#506 = EDGE_CURVE('',#483,#499,#507,.T.);
#507 = LINE('',#508,#509);
#508 = CARTESIAN_POINT('',(193.60081990969,84.693156146513,3.));
#509 = VECTOR('',#510,1.);
#510 = DIRECTION('',(1.,0.,0.));
#511 = PLANE('',#512);
#512 = AXIS2_PLACEMENT_3D('',#513,#514,#515);
#513 = CARTESIAN_POINT('',(221.7024435,79.3328645,3.));
#514 = DIRECTION('',(0.,0.,1.));
#515 = DIRECTION('',(1.,0.,0.));
#516 = ADVANCED_FACE('',(#517),#529,.T.);
#517 = FACE_BOUND('',#518,.F.);
#518 = EDGE_LOOP('',(#519,#520,#521,#528));
#519 = ORIENTED_EDGE('',*,*,#104,.F.);
#520 = ORIENTED_EDGE('',*,*,#405,.T.);
#521 = ORIENTED_EDGE('',*,*,#522,.T.);
#522 = EDGE_CURVE('',#362,#289,#523,.T.);
#523 = CIRCLE('',#524,2.);
#524 = AXIS2_PLACEMENT_3D('',#525,#526,#527);
#525 = CARTESIAN_POINT('',(190.020457,26.858156,1.));
#526 = DIRECTION('',(1.,0.,-0.));
#527 = DIRECTION('',(0.,0.,1.));
#528 = ORIENTED_EDGE('',*,*,#296,.F.);
#529 = TOROIDAL_SURFACE('',#530,2.,2.);
#530 = AXIS2_PLACEMENT_3D('',#531,#532,#533);
#531 = CARTESIAN_POINT('',(190.020457,28.858156,1.));
#532 = DIRECTION('',(-0.,-0.,-1.));
#533 = DIRECTION('',(-1.,-1.78E-15,0.));
#534 = ADVANCED_FACE('',(#535),#553,.F.);
#535 = FACE_BOUND('',#536,.F.);
#536 = EDGE_LOOP('',(#537,#538,#546,#552));
#537 = ORIENTED_EDGE('',*,*,#288,.T.);
#538 = ORIENTED_EDGE('',*,*,#539,.T.);
#539 = EDGE_CURVE('',#289,#540,#542,.T.);
#540 = VERTEX_POINT('',#541);
#541 = CARTESIAN_POINT('',(253.38443,24.858156,1.));
#542 = LINE('',#543,#544);
#543 = CARTESIAN_POINT('',(190.020457,24.858156,1.));
#544 = VECTOR('',#545,1.);
#545 = DIRECTION('',(1.,0.,0.));
#546 = ORIENTED_EDGE('',*,*,#547,.F.);
#547 = EDGE_CURVE('',#138,#540,#548,.T.);
#548 = LINE('',#549,#550);
#549 = CARTESIAN_POINT('',(253.38443,24.858156,0.));
#550 = VECTOR('',#551,1.);
#551 = DIRECTION('',(0.,0.,1.));
#552 = ORIENTED_EDGE('',*,*,#137,.F.);
#553 = PLANE('',#554);
#554 = AXIS2_PLACEMENT_3D('',#555,#556,#557);
#555 = CARTESIAN_POINT('',(186.020457,24.858156,0.));
#556 = DIRECTION('',(0.,1.,0.));
#557 = DIRECTION('',(1.,0.,0.));
#558 = ADVANCED_FACE('',(#559),#578,.T.);
#559 = FACE_BOUND('',#560,.T.);
#560 = EDGE_LOOP('',(#561,#569,#570,#571));
#561 = ORIENTED_EDGE('',*,*,#562,.F.);
#562 = EDGE_CURVE('',#155,#563,#565,.T.);
#563 = VERTEX_POINT('',#564);
#564 = CARTESIAN_POINT('',(257.38443,129.807573,1.));
#565 = LINE('',#566,#567);
#566 = CARTESIAN_POINT('',(257.38443,129.807573,0.));
#567 = VECTOR('',#568,1.);
#568 = DIRECTION('',(0.,0.,1.));
#569 = ORIENTED_EDGE('',*,*,#162,.T.);
#570 = ORIENTED_EDGE('',*,*,#337,.T.);
#571 = ORIENTED_EDGE('',*,*,#572,.F.);
#572 = EDGE_CURVE('',#563,#338,#573,.T.);
#573 = CIRCLE('',#574,4.);
#574 = AXIS2_PLACEMENT_3D('',#575,#576,#577);
#575 = CARTESIAN_POINT('',(253.38443,129.807573,1.));
#576 = DIRECTION('',(0.,0.,1.));
#577 = DIRECTION('',(1.,0.,-0.));
#578 = CYLINDRICAL_SURFACE('',#579,4.);
#579 = AXIS2_PLACEMENT_3D('',#580,#581,#582);
#580 = CARTESIAN_POINT('',(253.38443,129.807573,0.));
#581 = DIRECTION('',(0.,0.,1.));
#582 = DIRECTION('',(1.,0.,0.));
#583 = ADVANCED_FACE('',(#584),#603,.T.);
#584 = FACE_BOUND('',#585,.T.);
#585 = EDGE_LOOP('',(#586,#587,#588,#596));
#586 = ORIENTED_EDGE('',*,*,#547,.F.);
#587 = ORIENTED_EDGE('',*,*,#145,.T.);
#588 = ORIENTED_EDGE('',*,*,#589,.T.);
#589 = EDGE_CURVE('',#146,#590,#592,.T.);
#590 = VERTEX_POINT('',#591);
#591 = CARTESIAN_POINT('',(257.38443,28.858156,1.));
#592 = LINE('',#593,#594);
#593 = CARTESIAN_POINT('',(257.38443,28.858156,0.));
#594 = VECTOR('',#595,1.);
#595 = DIRECTION('',(0.,0.,1.));
#596 = ORIENTED_EDGE('',*,*,#597,.F.);
#597 = EDGE_CURVE('',#540,#590,#598,.T.);
#598 = CIRCLE('',#599,4.);
#599 = AXIS2_PLACEMENT_3D('',#600,#601,#602);
#600 = CARTESIAN_POINT('',(253.38443,28.858156,1.));
#601 = DIRECTION('',(-0.,0.,1.));
#602 = DIRECTION('',(0.,-1.,0.));
#603 = CYLINDRICAL_SURFACE('',#604,4.);
#604 = AXIS2_PLACEMENT_3D('',#605,#606,#607);
#605 = CARTESIAN_POINT('',(253.38443,28.858156,0.));
#606 = DIRECTION('',(0.,0.,1.));
#607 = DIRECTION('',(0.,-1.,0.));
#608 = ADVANCED_FACE('',(#609),#620,.F.);
#609 = FACE_BOUND('',#610,.F.);
#610 = EDGE_LOOP('',(#611,#612,#618,#619));
#611 = ORIENTED_EDGE('',*,*,#589,.T.);
#612 = ORIENTED_EDGE('',*,*,#613,.T.);
#613 = EDGE_CURVE('',#590,#563,#614,.T.);
#614 = LINE('',#615,#616);
#615 = CARTESIAN_POINT('',(257.38443,28.858156,1.));
#616 = VECTOR('',#617,1.);
#617 = DIRECTION('',(0.,1.,0.));
#618 = ORIENTED_EDGE('',*,*,#562,.F.);
#619 = ORIENTED_EDGE('',*,*,#154,.F.);
#620 = PLANE('',#621);
#621 = AXIS2_PLACEMENT_3D('',#622,#623,#624);
#622 = CARTESIAN_POINT('',(257.38443,24.858156,0.));
#623 = DIRECTION('',(-1.,0.,0.));
#624 = DIRECTION('',(0.,1.,0.));
#625 = ADVANCED_FACE('',(#626),#637,.F.);
#626 = FACE_BOUND('',#627,.F.);
#627 = EDGE_LOOP('',(#628,#629,#635,#636));
#628 = ORIENTED_EDGE('',*,*,#414,.F.);
#629 = ORIENTED_EDGE('',*,*,#630,.T.);
#630 = EDGE_CURVE('',#415,#181,#631,.T.);
#631 = LINE('',#632,#633);
#632 = CARTESIAN_POINT('',(214.71216394002,42.679523999997,3.));
#633 = VECTOR('',#634,1.);
#634 = DIRECTION('',(-0.,-0.,-1.));
#635 = ORIENTED_EDGE('',*,*,#180,.T.);
#636 = ORIENTED_EDGE('',*,*,#630,.F.);
#637 = CYLINDRICAL_SURFACE('',#638,3.514839000021);
#638 = AXIS2_PLACEMENT_3D('',#639,#640,#641);
#639 = CARTESIAN_POINT('',(211.19732494,42.679523999997,3.));
#640 = DIRECTION('',(0.,0.,1.));
#641 = DIRECTION('',(1.,0.,0.));
#642 = ADVANCED_FACE('',(#643),#654,.F.);
#643 = FACE_BOUND('',#644,.F.);
#644 = EDGE_LOOP('',(#645,#646,#652,#653));
#645 = ORIENTED_EDGE('',*,*,#425,.F.);
#646 = ORIENTED_EDGE('',*,*,#647,.T.);
#647 = EDGE_CURVE('',#426,#192,#648,.T.);
#648 = LINE('',#649,#650);
#649 = CARTESIAN_POINT('',(224.543459,34.82437,3.));
#650 = VECTOR('',#651,1.);
#651 = DIRECTION('',(-0.,-0.,-1.));
#652 = ORIENTED_EDGE('',*,*,#191,.T.);
#653 = ORIENTED_EDGE('',*,*,#647,.F.);
#654 = CYLINDRICAL_SURFACE('',#655,3.514839);
#655 = AXIS2_PLACEMENT_3D('',#656,#657,#658);
#656 = CARTESIAN_POINT('',(221.02862,34.82437,3.));
#657 = DIRECTION('',(0.,0.,1.));
#658 = DIRECTION('',(1.,0.,0.));
#659 = ADVANCED_FACE('',(#660),#671,.F.);
#660 = FACE_BOUND('',#661,.F.);
#661 = EDGE_LOOP('',(#662,#663,#669,#670));
#662 = ORIENTED_EDGE('',*,*,#436,.F.);
#663 = ORIENTED_EDGE('',*,*,#664,.T.);
#664 = EDGE_CURVE('',#437,#203,#665,.T.);
#665 = LINE('',#666,#667);
#666 = CARTESIAN_POINT('',(224.511459,43.19286,3.));
#667 = VECTOR('',#668,1.);
#668 = DIRECTION('',(-0.,-0.,-1.));
#669 = ORIENTED_EDGE('',*,*,#202,.T.);
#670 = ORIENTED_EDGE('',*,*,#664,.F.);
#671 = CYLINDRICAL_SURFACE('',#672,3.514839);
#672 = AXIS2_PLACEMENT_3D('',#673,#674,#675);
#673 = CARTESIAN_POINT('',(220.99662,43.19286,3.));
#674 = DIRECTION('',(0.,0.,1.));
#675 = DIRECTION('',(1.,0.,0.));
#676 = ADVANCED_FACE('',(#677),#688,.F.);
#677 = FACE_BOUND('',#678,.F.);
#678 = EDGE_LOOP('',(#679,#680,#686,#687));
#679 = ORIENTED_EDGE('',*,*,#447,.F.);
#680 = ORIENTED_EDGE('',*,*,#681,.T.);
#681 = EDGE_CURVE('',#448,#214,#682,.T.);
#682 = LINE('',#683,#684);
#683 = CARTESIAN_POINT('',(224.489144,51.321,3.));
#684 = VECTOR('',#685,1.);
#685 = DIRECTION('',(-0.,-0.,-1.));
#686 = ORIENTED_EDGE('',*,*,#213,.T.);
#687 = ORIENTED_EDGE('',*,*,#681,.F.);
#688 = CYLINDRICAL_SURFACE('',#689,3.514839);
#689 = AXIS2_PLACEMENT_3D('',#690,#691,#692);
#690 = CARTESIAN_POINT('',(220.974305,51.321,3.));
#691 = DIRECTION('',(0.,0.,1.));
#692 = DIRECTION('',(1.,0.,0.));
#693 = ADVANCED_FACE('',(#694),#705,.F.);
#694 = FACE_BOUND('',#695,.F.);
#695 = EDGE_LOOP('',(#696,#697,#703,#704));
#696 = ORIENTED_EDGE('',*,*,#458,.F.);
#697 = ORIENTED_EDGE('',*,*,#698,.T.);
#698 = EDGE_CURVE('',#459,#225,#699,.T.);
#699 = LINE('',#700,#701);
#700 = CARTESIAN_POINT('',(234.149626,43.593018,3.));
#701 = VECTOR('',#702,1.);
#702 = DIRECTION('',(-0.,-0.,-1.));
#703 = ORIENTED_EDGE('',*,*,#224,.T.);
#704 = ORIENTED_EDGE('',*,*,#698,.F.);
#705 = CYLINDRICAL_SURFACE('',#706,3.514839);
#706 = AXIS2_PLACEMENT_3D('',#707,#708,#709);
#707 = CARTESIAN_POINT('',(230.634787,43.593018,3.));
#708 = DIRECTION('',(0.,0.,1.));
#709 = DIRECTION('',(1.,0.,0.));
#710 = ADVANCED_FACE('',(#711),#722,.F.);
#711 = FACE_BOUND('',#712,.F.);
#712 = EDGE_LOOP('',(#713,#714,#720,#721));
#713 = ORIENTED_EDGE('',*,*,#469,.F.);
#714 = ORIENTED_EDGE('',*,*,#715,.T.);
#715 = EDGE_CURVE('',#470,#236,#716,.T.);
#716 = LINE('',#717,#718);
#717 = CARTESIAN_POINT('',(248.65852600006,35.030408000001,3.));
#718 = VECTOR('',#719,1.);
#719 = DIRECTION('',(-0.,-0.,-1.));
#720 = ORIENTED_EDGE('',*,*,#235,.T.);
#721 = ORIENTED_EDGE('',*,*,#715,.F.);
#722 = CYLINDRICAL_SURFACE('',#723,3.514839000064);
#723 = AXIS2_PLACEMENT_3D('',#724,#725,#726);
#724 = CARTESIAN_POINT('',(245.143687,35.030408000001,3.));
#725 = DIRECTION('',(0.,0.,1.));
#726 = DIRECTION('',(1.,0.,0.));
#727 = ADVANCED_FACE('',(#728),#744,.F.);
#728 = FACE_BOUND('',#729,.F.);
#729 = EDGE_LOOP('',(#730,#731,#737,#738));
#730 = ORIENTED_EDGE('',*,*,#480,.F.);
#731 = ORIENTED_EDGE('',*,*,#732,.T.);
#732 = EDGE_CURVE('',#481,#247,#733,.T.);
#733 = LINE('',#734,#735);
#734 = CARTESIAN_POINT('',(193.60081990969,126.69315614651,3.));
#735 = VECTOR('',#736,1.);
#736 = DIRECTION('',(-0.,-0.,-1.));
#737 = ORIENTED_EDGE('',*,*,#246,.T.);
#738 = ORIENTED_EDGE('',*,*,#739,.F.);
#739 = EDGE_CURVE('',#483,#249,#740,.T.);
#740 = LINE('',#741,#742);
#741 = CARTESIAN_POINT('',(193.60081990969,84.693156146513,3.));
#742 = VECTOR('',#743,1.);
#743 = DIRECTION('',(-0.,-0.,-1.));
#744 = PLANE('',#745);
#745 = AXIS2_PLACEMENT_3D('',#746,#747,#748);
#746 = CARTESIAN_POINT('',(193.60081990969,126.69315614651,3.));
#747 = DIRECTION('',(-1.,0.,0.));
#748 = DIRECTION('',(0.,-1.,0.));
#749 = ADVANCED_FACE('',(#750),#761,.F.);
#750 = FACE_BOUND('',#751,.F.);
#751 = EDGE_LOOP('',(#752,#753,#754,#755));
#752 = ORIENTED_EDGE('',*,*,#506,.F.);
#753 = ORIENTED_EDGE('',*,*,#739,.T.);
#754 = ORIENTED_EDGE('',*,*,#272,.T.);
#755 = ORIENTED_EDGE('',*,*,#756,.F.);
#756 = EDGE_CURVE('',#499,#265,#757,.T.);
#757 = LINE('',#758,#759);
#758 = CARTESIAN_POINT('',(249.60081990969,84.693156146513,3.));
#759 = VECTOR('',#760,1.);
#760 = DIRECTION('',(-0.,-0.,-1.));
#761 = PLANE('',#762);
#762 = AXIS2_PLACEMENT_3D('',#763,#764,#765);
#763 = CARTESIAN_POINT('',(193.60081990969,84.693156146513,3.));
#764 = DIRECTION('',(0.,-1.,0.));
#765 = DIRECTION('',(1.,0.,0.));
#766 = ADVANCED_FACE('',(#767),#778,.F.);
#767 = FACE_BOUND('',#768,.F.);
#768 = EDGE_LOOP('',(#769,#770,#771,#772));
#769 = ORIENTED_EDGE('',*,*,#498,.F.);
#770 = ORIENTED_EDGE('',*,*,#756,.T.);
#771 = ORIENTED_EDGE('',*,*,#264,.T.);
#772 = ORIENTED_EDGE('',*,*,#773,.F.);
#773 = EDGE_CURVE('',#491,#257,#774,.T.);
#774 = LINE('',#775,#776);
#775 = CARTESIAN_POINT('',(249.60081990969,126.69315614651,3.));
#776 = VECTOR('',#777,1.);
#777 = DIRECTION('',(-0.,-0.,-1.));
#778 = PLANE('',#779);
#779 = AXIS2_PLACEMENT_3D('',#780,#781,#782);
#780 = CARTESIAN_POINT('',(249.60081990969,84.693156146513,3.));
#781 = DIRECTION('',(1.,0.,0.));
#782 = DIRECTION('',(0.,1.,0.));
#783 = ADVANCED_FACE('',(#784),#790,.F.);
#784 = FACE_BOUND('',#785,.F.);
#785 = EDGE_LOOP('',(#786,#787,#788,#789));
#786 = ORIENTED_EDGE('',*,*,#490,.F.);
#787 = ORIENTED_EDGE('',*,*,#773,.T.);
#788 = ORIENTED_EDGE('',*,*,#256,.T.);
#789 = ORIENTED_EDGE('',*,*,#732,.F.);
#790 = PLANE('',#791);
#791 = AXIS2_PLACEMENT_3D('',#792,#793,#794);
#792 = CARTESIAN_POINT('',(249.60081990969,126.69315614651,3.));
#793 = DIRECTION('',(0.,1.,0.));
#794 = DIRECTION('',(-1.,0.,0.));
#795 = ADVANCED_FACE('',(#796),#808,.T.);
#796 = FACE_BOUND('',#797,.T.);
#797 = EDGE_LOOP('',(#798,#805,#806,#807));
#798 = ORIENTED_EDGE('',*,*,#799,.T.);
#799 = EDGE_CURVE('',#389,#338,#800,.T.);
#800 = CIRCLE('',#801,2.);
#801 = AXIS2_PLACEMENT_3D('',#802,#803,#804);
#802 = CARTESIAN_POINT('',(253.38443,131.807573,1.));
#803 = DIRECTION('',(-1.,6.E-17,0.));
#804 = DIRECTION('',(6.E-17,1.,0.));
#805 = ORIENTED_EDGE('',*,*,#345,.T.);
#806 = ORIENTED_EDGE('',*,*,#311,.F.);
#807 = ORIENTED_EDGE('',*,*,#397,.F.);
#808 = CYLINDRICAL_SURFACE('',#809,2.);
#809 = AXIS2_PLACEMENT_3D('',#810,#811,#812);
#810 = CARTESIAN_POINT('',(253.38443,131.807573,1.));
#811 = DIRECTION('',(-1.,0.,0.));
#812 = DIRECTION('',(0.,0.,1.));
#813 = ADVANCED_FACE('',(#814),#826,.T.);
#814 = FACE_BOUND('',#815,.T.);
#815 = EDGE_LOOP('',(#816,#817,#818,#825));
#816 = ORIENTED_EDGE('',*,*,#522,.T.);
#817 = ORIENTED_EDGE('',*,*,#539,.T.);
#818 = ORIENTED_EDGE('',*,*,#819,.F.);
#819 = EDGE_CURVE('',#364,#540,#820,.T.);
#820 = CIRCLE('',#821,2.);
#821 = AXIS2_PLACEMENT_3D('',#822,#823,#824);
#822 = CARTESIAN_POINT('',(253.38443,26.858156,1.));
#823 = DIRECTION('',(1.,0.,-0.));
#824 = DIRECTION('',(0.,0.,1.));
#825 = ORIENTED_EDGE('',*,*,#361,.F.);
#826 = CYLINDRICAL_SURFACE('',#827,2.);
#827 = AXIS2_PLACEMENT_3D('',#828,#829,#830);
#828 = CARTESIAN_POINT('',(190.020457,26.858156,1.));
#829 = DIRECTION('',(1.,0.,0.));
#830 = DIRECTION('',(0.,0.,1.));
#831 = ADVANCED_FACE('',(#832),#844,.T.);
#832 = FACE_BOUND('',#833,.F.);
#833 = EDGE_LOOP('',(#834,#835,#836,#843));
#834 = ORIENTED_EDGE('',*,*,#819,.F.);
#835 = ORIENTED_EDGE('',*,*,#371,.T.);
#836 = ORIENTED_EDGE('',*,*,#837,.T.);
#837 = EDGE_CURVE('',#372,#590,#838,.T.);
#838 = CIRCLE('',#839,2.);
#839 = AXIS2_PLACEMENT_3D('',#840,#841,#842);
#840 = CARTESIAN_POINT('',(255.38443,28.858156,1.));
#841 = DIRECTION('',(6.E-17,1.,0.));
#842 = DIRECTION('',(1.,-6.E-17,0.));
#843 = ORIENTED_EDGE('',*,*,#597,.F.);
#844 = TOROIDAL_SURFACE('',#845,2.,2.);
#845 = AXIS2_PLACEMENT_3D('',#846,#847,#848);
#846 = CARTESIAN_POINT('',(253.38443,28.858156,1.));
#847 = DIRECTION('',(-0.,-0.,-1.));
#848 = DIRECTION('',(0.,-1.,0.));
#849 = ADVANCED_FACE('',(#850),#862,.T.);
#850 = FACE_BOUND('',#851,.T.);
#851 = EDGE_LOOP('',(#852,#853,#854,#861));
#852 = ORIENTED_EDGE('',*,*,#837,.T.);
#853 = ORIENTED_EDGE('',*,*,#613,.T.);
#854 = ORIENTED_EDGE('',*,*,#855,.F.);
#855 = EDGE_CURVE('',#381,#563,#856,.T.);
#856 = CIRCLE('',#857,2.);
#857 = AXIS2_PLACEMENT_3D('',#858,#859,#860);
#858 = CARTESIAN_POINT('',(255.38443,129.807573,1.));
#859 = DIRECTION('',(0.,1.,0.));
#860 = DIRECTION('',(0.,-0.,1.));
#861 = ORIENTED_EDGE('',*,*,#380,.F.);
#862 = CYLINDRICAL_SURFACE('',#863,2.);
#863 = AXIS2_PLACEMENT_3D('',#864,#865,#866);
#864 = CARTESIAN_POINT('',(255.38443,28.858156,1.));
#865 = DIRECTION('',(0.,1.,0.));
#866 = DIRECTION('',(0.,-0.,1.));
#867 = ADVANCED_FACE('',(#868),#874,.T.);
#868 = FACE_BOUND('',#869,.F.);
#869 = EDGE_LOOP('',(#870,#871,#872,#873));
#870 = ORIENTED_EDGE('',*,*,#855,.F.);
#871 = ORIENTED_EDGE('',*,*,#388,.T.);
#872 = ORIENTED_EDGE('',*,*,#799,.T.);
#873 = ORIENTED_EDGE('',*,*,#572,.F.);
#874 = TOROIDAL_SURFACE('',#875,2.,2.);
#875 = AXIS2_PLACEMENT_3D('',#876,#877,#878);
#876 = CARTESIAN_POINT('',(253.38443,129.807573,1.));
#877 = DIRECTION('',(-0.,-0.,-1.));
#878 = DIRECTION('',(1.,0.,0.));
#879 = ( GEOMETRIC_REPRESENTATION_CONTEXT(3) 
GLOBAL_UNCERTAINTY_ASSIGNED_CONTEXT((#883)) GLOBAL_UNIT_ASSIGNED_CONTEXT
((#880,#881,#882)) REPRESENTATION_CONTEXT('Context #1',
  '3D Context with UNIT and UNCERTAINTY') );
#880 = ( LENGTH_UNIT() NAMED_UNIT(*) SI_UNIT(.MILLI.,.METRE.) );
#881 = ( NAMED_UNIT(*) PLANE_ANGLE_UNIT() SI_UNIT($,.RADIAN.) );
#882 = ( NAMED_UNIT(*) SI_UNIT($,.STERADIAN.) SOLID_ANGLE_UNIT() );
#883 = UNCERTAINTY_MEASURE_WITH_UNIT(LENGTH_MEASURE(5.E-06),#880,
  'distance_accuracy_value','confusion accuracy');
#884 = PRODUCT_RELATED_PRODUCT_CATEGORY('part',$,(#7));
#885 = MECHANICAL_DESIGN_GEOMETRIC_PRESENTATION_REPRESENTATION('',(#886)
  ,#879);
#886 = STYLED_ITEM('color',(#887),#15);
#887 = PRESENTATION_STYLE_ASSIGNMENT((#888,#894));
#888 = SURFACE_STYLE_USAGE(.BOTH.,#889);
#889 = SURFACE_SIDE_STYLE('',(#890));
#890 = SURFACE_STYLE_FILL_AREA(#891);
#891 = FILL_AREA_STYLE('',(#892));
#892 = FILL_AREA_STYLE_COLOUR('',#893);
#893 = COLOUR_RGB('',0.678431390124,0.709803936702,0.741176476869);
#894 = CURVE_STYLE('',#895,POSITIVE_LENGTH_MEASURE(0.1),#896);
#895 = DRAUGHTING_PRE_DEFINED_CURVE_FONT('continuous');
#896 = COLOUR_RGB('',9.803921802644E-02,9.803921802644E-02,
  9.803921802644E-02);
ENDSEC;
END-ISO-10303-21;
